<?xml version="1.0" standalone="no"?>
<!DOCTYPE svg PUBLIC "-//W3C//DTD SVG 20010904//EN"
 "http://www.w3.org/TR/2001/REC-SVG-20010904/DTD/svg10.dtd">
<svg version="1.0" xmlns="http://www.w3.org/2000/svg"
 width="419.000000pt" height="595.000000pt" viewBox="0 0 419.000000 595.000000"
 preserveAspectRatio="xMidYMid meet">

<g transform="translate(0.000000,595.000000) scale(0.100000,-0.100000)"
fill="#000000" stroke="none">
<path d="M1788 5495 c-248 -56 -388 -149 -552 -369 -86 -116 -100 -136 -93
-136 3 0 30 31 60 69 60 73 62 76 128 136 49 44 102 81 166 114 53 26 61 27
38 1 -18 -20 -18 -20 19 -5 21 9 43 14 49 11 7 -2 6 -5 -3 -5 -9 -1 -26 -8
-39 -17 -18 -13 -20 -18 -10 -25 10 -6 11 -9 2 -9 -7 0 -13 -7 -13 -16 0 -8
-4 -13 -9 -10 -4 3 -13 -6 -19 -19 -7 -14 -15 -25 -20 -25 -4 0 -17 -8 -28
-17 -10 -10 -32 -25 -48 -33 -29 -15 -43 -36 -32 -47 3 -3 14 0 23 8 19 15 46
29 156 79 93 42 117 51 117 42 0 -5 -18 -21 -40 -38 -45 -33 -52 -54 -15 -46
29 5 33 -11 8 -30 -10 -7 -26 -23 -37 -35 -21 -25 -21 -25 49 -7 27 7 29 6 16
-9 -7 -9 -29 -19 -50 -22 -72 -12 -150 -53 -204 -107 -15 -16 -32 -28 -39 -28
-6 0 -20 -8 -30 -17 -16 -14 -23 -15 -38 -5 -11 6 -27 9 -37 5 -11 -4 -5 8 17
32 19 21 28 34 20 30 -38 -21 -107 -71 -130 -94 -14 -14 -46 -41 -70 -60 -78
-59 -158 -172 -208 -289 -26 -63 -46 -127 -48 -156 -2 -28 -8 -54 -14 -60 -5
-5 -10 -17 -10 -26 0 -9 -9 -33 -20 -55 -21 -42 -29 -84 -10 -55 7 10 8 4 3
-20 -4 -19 -6 -51 -5 -70 1 -19 2 -71 3 -114 0 -44 4 -74 7 -69 4 6 6 -50 5
-125 -3 -177 -8 -286 -15 -298 -8 -12 3 -105 11 -100 3 2 7 -9 8 -24 2 -24 -1
-28 -15 -23 -16 6 -16 5 1 -11 9 -9 17 -23 18 -29 0 -7 2 -21 3 -33 6 -50 -12
-157 -28 -166 -9 -5 -16 -18 -16 -28 0 -10 -5 -22 -10 -25 -6 -4 -10 18 -11
57 -1 35 -5 77 -9 93 -7 27 -8 25 -9 -17 -1 -48 -21 -80 -21 -34 0 13 -3 33
-6 43 -4 14 -4 15 4 4 7 -10 12 3 17 46 3 33 10 65 15 72 4 8 5 -8 3 -35 -3
-27 -3 -47 0 -43 4 3 8 33 11 68 4 56 3 61 -10 45 -13 -17 -13 -15 -9 26 10
89 -15 -9 -41 -165 -14 -82 -27 -152 -30 -154 -7 -7 -4 53 5 110 14 82 22 153
16 147 -3 -2 -11 -42 -20 -89 -15 -86 -46 -196 -65 -227 -8 -13 -9 -10 -3 13
6 28 5 29 -12 15 -17 -14 -18 -13 -12 3 4 10 4 29 1 43 l-6 24 -20 -25 c-10
-14 -17 -28 -14 -33 2 -4 -5 -14 -16 -21 -19 -12 -20 -11 -14 6 6 17 5 17 -9
-1 -20 -27 -32 -12 -18 24 7 18 7 30 2 30 -13 0 -31 -50 -25 -67 3 -8 2 -12
-3 -8 -5 3 -12 -13 -16 -34 -4 -22 -13 -45 -21 -52 -8 -6 -14 -26 -14 -43 0
-18 -5 -37 -12 -44 -15 -15 -15 -99 0 -222 13 -110 8 -160 -19 -167 -12 -4
-21 -18 -25 -42 -6 -41 -34 -101 -47 -101 -5 0 -7 -6 -5 -12 3 -7 -1 -18 -8
-25 -7 -7 -15 -35 -19 -63 -4 -27 -11 -52 -16 -56 -5 -3 -9 -46 -9 -95 0 -94
-11 -131 -53 -177 l-21 -22 30 3 c35 5 114 38 157 69 l32 22 -20 -24 -20 -24
29 18 c15 10 42 19 60 21 17 2 42 7 56 10 14 4 -4 -9 -40 -27 -91 -48 -230
-131 -316 -189 -80 -54 -97 -61 -68 -27 10 12 13 18 7 14 -9 -5 -13 0 -13 13
0 25 -8 26 -38 3 -20 -16 -23 -25 -20 -76 l3 -58 75 54 c84 60 315 177 403
204 37 11 71 30 90 50 36 36 120 84 149 84 11 0 23 11 28 25 5 14 14 25 20 25
5 0 10 6 10 14 0 8 4 18 10 21 6 3 7 -1 4 -12 -4 -14 -4 -15 4 -3 5 8 12 29
15 45 4 17 4 24 1 18 -21 -48 -18 37 4 147 4 19 5 53 2 75 -3 22 -2 54 1 70 6
27 7 25 8 -15 2 -38 4 -41 11 -22 5 12 12 22 14 22 3 0 4 -40 2 -90 -1 -49 0
-90 3 -90 3 0 19 21 35 48 17 26 40 60 53 75 13 16 23 38 23 50 0 17 2 19 9 8
7 -11 10 -9 16 8 4 13 9 20 12 17 4 -3 12 2 19 12 17 22 18 1 1 -32 -8 -14
-18 -22 -22 -18 -5 4 -5 1 -1 -6 9 -15 -43 -108 -95 -168 -22 -25 -39 -51 -39
-58 0 -7 -9 -22 -21 -35 -16 -17 -18 -25 -9 -36 10 -12 16 -10 37 11 14 14 28
22 32 16 3 -5 16 -12 28 -16 13 -4 23 -12 23 -17 0 -5 6 -9 14 -9 10 0 13 18
12 73 -1 58 4 81 23 119 13 26 28 45 33 42 4 -3 11 9 15 26 3 20 15 36 29 42
13 6 22 14 20 17 -6 10 24 75 31 68 3 -4 0 -14 -7 -22 -8 -10 -10 -19 -4 -25
16 -16 96 114 109 177 6 31 17 59 23 61 6 2 37 -38 69 -88 101 -161 228 -322
326 -415 80 -76 102 -91 131 -93 20 -2 36 2 36 8 0 5 -4 11 -10 11 -5 1 -16 2
-22 3 -7 0 -13 6 -13 13 0 7 -22 27 -48 46 -26 19 -60 49 -75 68 -15 18 -36
43 -47 55 -28 28 -176 212 -201 249 -27 39 -55 111 -47 119 4 4 8 14 9 24 1 9
9 55 17 102 13 78 15 205 4 217 -3 2 -1 18 4 35 7 26 3 40 -32 99 -45 77 -84
174 -94 234 -10 59 -25 159 -25 168 0 5 5 5 10 2 6 -3 10 -1 10 4 0 6 -4 11
-10 11 -5 0 -15 20 -21 45 -14 55 -21 61 -54 39 -21 -14 -31 -15 -51 -5 -14 6
-22 16 -19 22 4 6 4 26 1 45 -6 29 -11 34 -33 34 -25 0 -25 -1 -9 -13 20 -14
19 -48 -1 -55 -7 -2 -13 4 -13 13 0 9 -4 14 -9 10 -21 -12 -89 107 -91 158 0
15 3 16 21 6 20 -10 21 -9 15 17 -4 16 -9 42 -11 57 l-3 29 26 -25 c15 -13 39
-27 55 -31 17 -4 27 -13 27 -24 0 -27 29 -62 51 -62 10 0 19 4 19 10 0 15 -40
87 -56 101 -19 15 -18 59 2 87 19 27 34 21 26 -11 -5 -19 -3 -20 10 -10 12 11
17 9 26 -10 6 -12 13 -40 17 -62 15 -99 44 -208 58 -223 23 -22 27 -13 17 33
-5 22 -8 66 -7 97 2 34 -1 52 -6 45 -18 -25 4 173 29 269 27 102 81 234 95
234 4 0 10 13 14 28 3 15 23 55 45 87 44 65 50 88 23 78 -10 -3 7 18 37 48 32
31 70 82 89 119 l33 65 -56 -60 c-30 -33 -53 -65 -51 -72 2 -7 -2 -10 -9 -7
-7 3 -25 -10 -39 -28 -43 -54 -56 -68 -67 -68 -6 0 -4 13 5 30 19 37 19 46 -1
29 -18 -15 38 74 70 110 l21 23 -22 -6 c-17 -6 -23 -3 -23 9 0 27 42 75 98
112 28 19 52 37 52 38 0 2 -20 -5 -45 -16 -35 -15 -49 -17 -65 -9 -28 15 -25
18 13 15 41 -4 80 21 57 35 -10 7 -11 10 -2 10 6 0 12 5 12 12 0 6 -7 4 -18
-5 -10 -10 -22 -14 -27 -10 -4 5 -5 2 -1 -5 5 -9 3 -12 -5 -11 -17 3 -69 -21
-69 -32 0 -11 -70 -52 -77 -45 -4 3 -1 6 5 6 7 0 12 5 12 10 0 17 -25 11 -49
-11 -36 -34 -33 -17 5 23 18 20 34 41 34 47 0 5 6 14 13 18 6 4 17 16 22 27 6
10 32 26 59 36 26 10 71 34 99 53 52 35 115 58 102 37 -3 -5 -2 -10 4 -10 6 0
7 -8 4 -17 -5 -13 -3 -15 13 -9 46 19 86 27 106 20 19 -6 12 -12 -46 -41 -37
-19 -66 -37 -62 -40 3 -3 45 11 94 31 50 20 103 36 118 35 20 0 5 -8 -51 -28
-49 -17 -79 -32 -77 -40 1 -7 -1 -10 -6 -7 -5 3 -18 -2 -28 -10 -10 -9 -12
-12 -4 -8 8 4 1 -6 -16 -24 -18 -17 -35 -44 -39 -59 -3 -15 -24 -64 -44 -108
-21 -44 -42 -91 -46 -104 l-7 -23 49 26 c55 30 163 125 163 142 0 7 7 15 16
18 22 9 24 8 18 -8 -4 -11 3 -12 40 -3 25 6 43 14 40 19 -8 12 45 30 89 30 24
1 34 4 26 9 -20 12 -4 22 18 11 10 -5 47 -12 83 -16 35 -3 69 -11 74 -16 6 -6
15 -10 21 -10 5 0 3 5 -5 10 -8 5 -10 10 -5 10 6 0 21 -7 33 -16 12 -8 27 -12
32 -9 6 3 22 -3 36 -14 14 -11 32 -17 39 -14 9 3 26 -8 41 -27 20 -24 29 -28
35 -18 7 10 9 10 9 1 0 -7 7 -13 15 -13 8 0 15 -9 15 -19 0 -11 5 -23 10 -26
6 -4 8 -15 5 -26 -4 -12 -2 -19 7 -19 10 0 9 -3 -2 -10 -12 -8 -12 -10 -1 -10
10 0 11 -3 2 -13 -6 -8 -7 -17 -3 -21 4 -4 8 -47 9 -94 3 -133 6 -162 15 -168
4 -3 6 -10 3 -15 -4 -5 1 -9 9 -9 11 0 16 -9 16 -29 0 -21 8 -36 30 -51 17
-12 30 -26 30 -31 0 -13 -45 -29 -110 -39 -64 -10 -150 -47 -206 -90 -35 -28
-62 -92 -68 -165 -6 -80 7 -263 25 -346 12 -56 12 -56 -22 -102 -19 -25 -44
-48 -56 -51 -17 -5 -23 -14 -23 -34 0 -23 6 -30 36 -41 43 -15 75 -71 57 -99
-6 -9 -16 -16 -22 -14 -6 1 -31 -7 -56 -19 -24 -11 -49 -18 -56 -14 -6 4 -14
2 -18 -4 -4 -6 -23 -11 -42 -11 -50 1 -273 2 -281 1 -18 -2 -6 -20 22 -31 17
-7 30 -16 30 -21 0 -5 7 -9 15 -9 8 0 26 -12 41 -27 15 -16 22 -20 15 -11 -19
25 -5 37 34 31 24 -4 35 -2 35 7 0 14 99 7 128 -9 14 -8 13 -10 -11 -16 -27
-7 -36 -20 -16 -27 15 -5 0 -38 -18 -38 -8 0 -17 -9 -20 -19 -4 -16 -9 -18
-36 -10 -18 5 -33 9 -33 9 -1 0 0 -9 3 -20 10 -39 69 -71 161 -87 92 -16 114
-30 103 -66 -11 -37 -48 -100 -85 -142 l-34 -40 -86 1 c-47 1 -86 -2 -86 -6 0
-12 79 -80 93 -80 8 0 17 -6 20 -14 3 -8 19 -17 36 -21 17 -3 42 -20 55 -36
14 -16 33 -29 43 -29 13 0 19 -8 21 -27 1 -14 9 -34 17 -43 9 -10 15 -21 14
-26 -4 -26 3 -44 18 -44 9 0 34 -18 55 -40 22 -22 34 -40 27 -40 -12 0 -3 -15
9 -15 4 0 13 -4 20 -8 25 -17 69 112 97 286 3 20 10 37 15 37 6 0 10 -5 10
-11 0 -5 5 -7 11 -4 18 12 74 -85 100 -172 11 -38 14 -41 24 -25 7 9 15 26 18
37 3 11 6 2 7 -22 3 -49 3 -48 18 -86 7 -16 12 -35 12 -42 0 -18 70 -89 71
-72 0 7 5 1 10 -12 8 -21 12 -23 23 -10 8 8 22 39 31 69 10 30 29 80 42 110
19 42 25 78 29 153 3 55 11 113 18 130 13 29 14 22 10 -78 -5 -101 -4 -108 10
-85 12 20 15 21 16 7 0 -9 -4 -25 -9 -35 -34 -60 -60 -125 -55 -133 9 -15 -6
-50 -18 -43 -6 4 -8 3 -5 -3 3 -5 -6 -38 -20 -74 -20 -47 -28 -84 -29 -139 -1
-41 -5 -92 -9 -112 -4 -20 -3 -44 2 -53 7 -12 10 -4 9 30 0 25 5 49 11 53 5 4
15 21 21 37 10 29 10 29 12 5 0 -14 7 -36 15 -50 14 -25 14 -25 15 -2 l0 22
21 -21 c27 -27 34 -18 15 20 -22 41 -20 61 3 32 19 -25 51 -37 51 -19 0 5 -13
23 -30 40 -31 31 -41 50 -15 28 11 -9 15 -9 15 -1 0 7 5 9 11 5 8 -4 9 0 4 15
-5 16 -3 20 9 15 9 -3 16 -10 16 -14 0 -5 9 -12 20 -15 11 -3 20 -10 20 -15 0
-5 14 -31 30 -57 45 -70 73 -152 59 -169 -9 -11 -8 -15 5 -20 9 -3 16 -10 16
-16 0 -5 -4 -6 -10 -3 -5 3 -10 2 -10 -3 0 -5 10 -12 21 -15 14 -4 20 -11 16
-20 -3 -8 2 -39 10 -68 15 -51 15 -55 -7 -95 -14 -27 -19 -48 -13 -57 19 -33
73 -87 88 -87 8 0 15 -8 15 -17 1 -13 11 -7 35 22 19 22 35 46 35 53 0 6 5 12
10 12 15 0 12 -26 -5 -40 -8 -7 -15 -17 -15 -22 0 -5 -7 -16 -15 -24 -8 -9
-15 -20 -15 -25 0 -13 77 -87 149 -143 34 -27 78 -64 97 -83 19 -18 39 -33 44
-33 12 0 60 -48 60 -60 0 -6 -7 -10 -15 -10 -13 0 -13 -3 -3 -20 7 -11 19 -20
26 -20 8 0 10 -5 6 -12 -5 -7 -2 -9 9 -5 24 9 44 -20 29 -44 -28 -44 -11 -85
53 -129 47 -32 58 -62 28 -78 -15 -9 -13 -17 16 -88 18 -44 42 -101 53 -129
26 -63 61 -322 53 -393 l-5 -52 180 0 180 0 0 510 c0 333 -3 510 -10 510 -5 0
-10 9 -10 20 0 11 -5 19 -12 17 -6 -1 -15 17 -20 41 -5 23 -14 42 -19 42 -6 0
-8 9 -4 19 3 11 1 28 -4 38 -13 22 -36 103 -34 120 0 7 -3 13 -8 13 -5 0 -9 7
-9 15 0 8 -5 15 -11 15 -5 0 -8 4 -5 9 4 5 3 11 -1 13 -12 5 -53 85 -53 102 0
8 -5 16 -11 18 -6 2 -12 16 -12 30 -2 20 -9 29 -26 33 -13 3 -27 1 -31 -4 -8
-13 -50 32 -50 54 0 8 -4 15 -8 15 -12 0 -32 62 -39 120 -3 28 -10 53 -15 56
-5 3 -9 0 -7 -7 3 -25 -1 -39 -10 -39 -13 0 -49 77 -56 120 -3 19 -11 41 -18
48 -6 8 -10 25 -9 38 2 15 -3 26 -12 30 -9 3 -16 18 -16 33 0 14 -6 35 -13 47
-40 70 -64 121 -60 132 3 6 9 10 14 6 5 -3 9 2 9 10 0 9 18 25 40 36 22 11 54
33 72 49 41 35 105 49 78 16 -10 -12 -10 -15 4 -15 9 0 16 -4 16 -10 0 -5 5
-10 11 -10 8 0 9 4 0 13 -6 8 -8 16 -5 20 13 13 35 -7 53 -48 16 -37 22 -42
46 -40 58 7 148 -111 166 -215 13 -77 32 -140 42 -140 15 0 1 102 -18 140 -18
35 -11 57 8 25 7 -11 22 -49 34 -85 l22 -65 0 119 c1 113 0 121 -24 153 -28
36 -131 115 -234 178 -90 57 -100 63 -207 135 -53 36 -100 64 -105 62 -5 -1
-9 2 -9 8 0 5 -4 10 -9 10 -5 0 -26 16 -45 35 -33 32 -76 49 -61 25 10 -16 -7
-11 -41 12 -34 23 -54 56 -54 87 0 10 -9 44 -21 77 -34 99 -42 157 -54 414 -6
141 -12 218 -20 260 -3 14 -7 41 -11 60 -9 53 -10 149 -1 143 9 -5 -2 47 -13
62 -9 12 -21 59 -26 100 -2 16 -6 37 -9 45 -2 8 -7 42 -10 75 -13 131 -22 172
-89 425 -43 158 -47 171 -93 275 -25 55 -51 114 -59 132 -8 18 -19 35 -25 39
-6 3 -15 16 -20 27 -5 12 -17 36 -27 52 -10 17 -34 59 -52 95 -37 71 -87 149
-121 192 -12 15 -25 31 -28 35 -3 4 -34 34 -68 66 -34 31 -59 57 -56 57 21 0
-42 46 -104 75 -90 43 -223 62 -318 47 -56 -10 -62 -9 -86 14 -28 27 -61 31
-78 10 -10 -11 -17 -11 -48 5 -45 23 -42 23 -175 -6z m27 -295 c3 -5 -1 -10
-10 -10 -9 0 -13 5 -10 10 3 6 8 10 10 10 2 0 7 -4 10 -10z m-371 -415 c-10
-8 -23 -15 -28 -15 -6 0 -1 7 10 15 10 8 23 15 28 15 6 0 1 -7 -10 -15z m1416
-121 c0 -20 42 -114 51 -114 5 0 9 6 9 13 0 6 10 -4 21 -23 23 -37 29 -113 11
-146 -12 -23 -26 -214 -24 -329 1 -44 -5 -105 -13 -135 l-14 -55 2 92 c3 86 2
90 -11 63 -8 -17 -18 -30 -22 -30 -5 0 -2 13 6 28 7 15 18 61 24 101 6 41 13
86 16 100 3 17 -4 10 -21 -21 -14 -27 -27 -48 -29 -48 -2 0 0 19 4 43 13 71
21 337 10 337 -6 0 -10 11 -10 23 0 13 -9 50 -20 82 -11 32 -20 61 -20 64 1
11 30 -33 30 -45z m-1817 -561 c4 -10 14 -28 23 -40 16 -22 15 -23 -10 -33
-30 -11 -59 -3 -49 14 8 12 9 17 11 54 2 26 17 29 25 5z m1938 -103 c10 0 8
-26 -18 -157 -9 -51 -21 -93 -25 -93 -11 0 -10 17 7 155 18 143 16 134 22 113
2 -10 9 -18 14 -18z m-511 -140 c0 -5 -4 -10 -10 -10 -5 0 -10 5 -10 10 0 6 5
10 10 10 6 0 10 -4 10 -10z m-60 -51 c0 -6 -4 -7 -10 -4 -5 3 -10 11 -10 16 0
6 5 7 10 4 6 -3 10 -11 10 -16z m8 -25 c13 -2 20 -9 17 -14 -3 -6 -1 -10 4
-10 6 0 11 -4 11 -9 0 -5 -16 -5 -37 -1 -21 5 -44 5 -54 0 -12 -7 -19 -5 -23
6 -3 9 -4 19 -2 22 5 9 55 13 84 6z m16 -59 c2 -7 26 -21 53 -31 26 -10 57
-26 67 -36 11 -10 24 -18 28 -18 5 0 7 -4 4 -9 -3 -5 0 -11 7 -14 8 -3 11 -25
9 -68 -4 -116 -9 -147 -26 -164 -9 -9 -16 -25 -16 -35 0 -30 -58 -114 -83
-121 -28 -7 -57 7 -57 27 0 9 15 31 33 49 32 32 33 33 15 56 -38 51 -55 77
-69 109 -11 24 -12 35 -23 131 -3 26 -11 58 -17 73 -10 21 -9 29 4 43 19 21
64 26 71 8z m385 -87 c-1 -57 -4 -91 -6 -75 -2 15 -9 25 -14 21 -6 -3 -8 4 -5
18 3 12 8 49 11 81 4 31 8 57 11 57 2 0 3 -46 3 -102z m-32 50 c-3 -8 -6 -5
-6 6 -1 11 2 17 5 13 3 -3 4 -12 1 -19z m120 -88 l0 -55 -7 50 c-5 28 -8 66
-8 85 l0 35 8 -30 c4 -16 8 -55 7 -85z m-53 9 c-2 -9 2 -19 11 -23 17 -6 21
-46 4 -46 -5 0 -8 4 -4 9 3 5 1 12 -5 16 -6 4 -10 -8 -10 -31 0 -30 -2 -34
-14 -25 -11 9 -12 20 -5 44 5 18 9 48 9 67 0 26 3 31 10 20 5 -8 7 -22 4 -31z
m-1784 -43 c0 -11 -19 -15 -25 -6 -3 5 1 10 9 10 9 0 16 -2 16 -4z m1818 -62
c4 2 5 -19 3 -47 -3 -50 -4 -51 -17 -26 -8 17 -11 40 -7 65 4 22 9 31 11 21 2
-9 7 -15 10 -13z m-1763 -166 c3 -42 3 -87 0 -99 l-7 -22 -14 24 c-13 23 -13
22 -14 -21 -2 -60 -12 -87 -27 -68 -21 25 -24 74 -9 119 9 24 16 51 16 59 0 8
7 28 15 44 8 15 15 38 15 50 1 48 18 -12 25 -86z m-231 -38 c-13 -58 -31 -137
-39 -177 -15 -73 -54 -188 -61 -181 -2 3 3 29 11 59 8 30 31 123 51 208 32
138 53 206 60 199 1 -2 -9 -50 -22 -108z m1962 -135 c3 -14 9 -23 13 -21 3 2
5 -20 5 -49 -1 -40 2 -55 14 -60 8 -3 19 0 24 7 5 8 8 9 8 2 0 -17 -77 -169
-127 -249 -24 -38 -43 -75 -43 -81 0 -12 -16 -45 -35 -74 -6 -8 -24 -58 -42
-110 -29 -85 -32 -90 -27 -45 3 28 10 66 15 86 5 20 11 58 13 85 3 27 8 81 11
119 7 80 15 108 61 222 19 45 34 85 34 90 0 4 9 19 20 33 11 14 18 17 14 8 -4
-13 -1 -15 15 -11 16 4 18 9 10 30 -12 31 -11 43 1 43 5 0 12 -11 16 -25z
m-115 -98 c-10 -9 -11 -8 -5 6 3 10 9 15 12 12 3 -3 0 -11 -7 -18z m-611 -86
c0 -6 -4 -13 -10 -16 -5 -3 -10 1 -10 9 0 9 5 16 10 16 6 0 10 -4 10 -9z m961
-120 c-10 -90 -23 -131 -41 -131 -6 0 -10 8 -10 18 -1 11 -6 6 -15 -13 l-14
-30 6 35 c5 34 5 34 -12 15 -9 -11 -13 -14 -9 -6 5 9 3 12 -4 7 -7 -4 -12 -18
-12 -31 0 -13 -4 -26 -9 -29 -5 -4 -8 18 -7 51 5 100 5 100 16 83 8 -13 10
-12 10 3 0 9 5 17 10 17 6 0 11 15 12 33 1 17 4 5 7 -28 l7 -60 8 60 c10 79
13 86 36 92 11 3 20 10 21 17 0 8 2 7 5 -1 3 -6 1 -52 -5 -102z m-111 -321 c0
-5 -5 -10 -11 -10 -5 0 -7 5 -4 10 3 6 8 10 11 10 2 0 4 -4 4 -10z m375 -159
c38 -75 43 -116 13 -100 -10 5 -23 19 -29 30 -21 39 -19 12 3 -39 16 -38 19
-55 11 -63 -8 -8 -15 -4 -26 17 -8 16 -25 40 -37 54 l-22 25 7 -25 c4 -14 10
-31 12 -37 10 -25 -5 -13 -24 20 -21 35 -36 90 -22 81 5 -3 9 0 9 7 0 8 4 8
15 -1 14 -11 14 -10 5 14 -15 39 -12 44 10 18 l19 -23 -1 23 c-3 48 2 79 12
73 6 -4 26 -37 45 -74z m-116 -116 c0 -15 -5 -11 -19 15 -25 45 -25 62 0 30
11 -14 19 -34 19 -45z m-2669 -4 c0 -45 -6 -37 -13 18 -4 29 -2 40 4 30 5 -7
9 -29 9 -48z m3055 49 c3 -5 1 -10 -4 -10 -6 0 -11 5 -11 10 0 6 2 10 4 10 3
0 8 -4 11 -10z m-537 -147 c16 -27 33 -64 36 -83 5 -30 5 -32 -4 -11 -6 13
-13 21 -16 18 -6 -6 11 -45 55 -122 13 -22 16 -31 7 -21 -9 11 -16 24 -16 30
0 5 -2 7 -5 4 -3 -3 -1 -17 5 -32 l10 -27 -36 27 c-52 40 -87 115 -99 216 l-6
43 26 -34 c26 -36 32 -31 15 13 -14 38 -6 32 28 -21z m52 -25 c0 -4 -4 -8 -9
-8 -12 0 -51 67 -44 74 6 6 53 -52 53 -66z m276 -170 c-9 -171 -10 -178 -31
-273 -17 -77 -54 -167 -74 -179 -14 -9 -23 28 -13 55 10 27 15 84 14 144 -1
31 1 37 9 25 8 -11 9 -2 5 33 -4 34 -3 46 6 41 7 -5 9 1 4 19 -3 14 -2 28 3
32 14 8 23 -30 16 -72 -4 -25 -3 -33 3 -23 18 30 22 108 7 157 -8 26 -15 62
-15 78 l1 30 14 -25 c14 -24 14 -24 15 24 0 39 3 47 15 42 9 -3 15 0 15 9 0 8
3 15 7 15 3 0 3 -60 -1 -132z m-2451 112 c-3 -5 -16 -10 -28 -10 -18 0 -19 2
-7 10 20 13 43 13 35 0z m1883 -25 c-3 -3 -9 2 -12 12 -6 14 -5 15 5 6 7 -7
10 -15 7 -18z m174 -55 c22 -25 51 -81 45 -86 -3 -4 -37 42 -70 93 -13 20 7
15 25 -7z m-52 -10 c0 -5 -5 -10 -11 -10 -5 0 -7 5 -4 10 3 6 8 10 11 10 2 0
4 -4 4 -10z m-2550 -64 c0 -2 -8 -10 -17 -17 -16 -13 -17 -12 -4 4 13 16 21
21 21 13z m2488 -31 c-3 -3 -9 2 -12 12 -6 14 -5 15 5 6 7 -7 10 -15 7 -18z
m981 -352 c12 -27 5 -30 -21 -6 -22 19 -23 30 -4 30 8 0 19 -11 25 -24z m-599
-23 c0 -5 -5 -10 -11 -10 -5 0 -7 5 -4 10 3 6 8 10 11 10 2 0 4 -4 4 -10z
m-106 -39 c4 -5 2 -20 -3 -32 l-8 -24 -8 25 c-4 14 -13 28 -19 32 -6 5 -2 8
11 8 12 0 24 -4 27 -9z m514 -121 c0 -10 -2 -9 -5 3 -2 9 -8 15 -12 13 -4 -3
-16 12 -25 32 l-17 37 30 -35 c17 -19 30 -42 29 -50z m-113 -47 c11 -10 28
-30 37 -45 14 -21 15 -27 4 -31 -17 -7 -80 57 -74 75 3 7 -2 19 -11 26 -14 11
-13 12 4 3 11 -6 29 -19 40 -28z m89 -129 c3 -8 2 -12 -4 -9 -6 3 -10 10 -10
16 0 14 7 11 14 -7z"/>
<path d="M2912 4090 c0 -14 2 -19 5 -12 2 6 2 18 0 25 -3 6 -5 1 -5 -13z"/>
<path d="M2772 3023 c-6 -16 -19 -43 -27 -60 -8 -18 -13 -33 -11 -33 5 0 66
105 66 114 0 16 -17 3 -28 -21z"/>
<path d="M2705 2860 c-4 -12 -5 -24 -2 -27 3 -2 8 5 12 17 4 12 5 24 2 27 -3
2 -8 -5 -12 -17z"/>
<path d="M2723 2803 c-1 -19 1 -22 8 -12 11 17 12 39 2 39 -5 0 -9 -12 -10
-27z"/>
<path d="M3336 2227 c3 -10 9 -15 12 -12 3 3 0 11 -7 18 -10 9 -11 8 -5 -6z"/>
<path d="M3602 1260 c7 -10 14 -18 15 -16 6 6 -9 36 -18 36 -5 0 -4 -9 3 -20z"/>
<path d="M1350 5095 c-8 -9 -8 -15 -2 -15 12 0 26 19 19 26 -2 2 -10 -2 -17
-11z"/>
<path d="M1295 4987 c-22 -12 -41 -25 -43 -29 -2 -4 -11 -4 -20 -1 -9 3 -14 3
-10 -2 4 -4 3 -16 -3 -26 -19 -37 10 -20 100 58 32 27 27 27 -24 0z"/>
<path d="M1609 4859 l-24 -20 28 17 c15 9 27 18 27 20 0 8 -8 4 -31 -17z"/>
<path d="M1514 4199 c-78 -30 -78 -40 1 -39 60 2 86 -4 180 -39 61 -22 126
-43 145 -47 19 -3 54 -12 78 -20 61 -20 82 -18 82 6 0 12 -7 32 -16 45 -18 28
-57 41 -219 74 -191 39 -199 39 -251 20z"/>
<path d="M1597 4058 c-85 -10 -137 -31 -137 -55 0 -23 106 -133 128 -133 10 0
30 -7 46 -15 15 -8 33 -15 39 -15 6 0 31 -7 55 -17 28 -10 41 -21 38 -30 -3
-8 2 -13 14 -13 32 0 58 21 52 42 -3 15 2 18 29 18 19 0 39 4 46 8 9 6 12 71
4 125 -2 15 -84 87 -100 88 -67 5 -157 4 -214 -3z m123 -112 c0 -2 -7 -6 -15
-10 -8 -3 -15 -1 -15 4 0 6 7 10 15 10 8 0 15 -2 15 -4z m-64 -40 c10 -31 9
-34 -6 -26 -9 5 -23 16 -30 25 -12 14 -11 18 1 26 21 13 23 12 35 -25z m183
-10 c10 -12 8 -17 -8 -25 -22 -12 -51 -15 -51 -4 0 9 32 43 40 43 4 0 13 -6
19 -14z"/>
<path d="M1230 3591 c0 -6 5 -13 10 -16 6 -3 10 1 10 9 0 9 -4 16 -10 16 -5 0
-10 -4 -10 -9z"/>
<path d="M1238 3555 c-8 -8 3 -55 13 -55 5 0 4 11 -1 24 -5 13 -6 27 -3 30 4
3 4 6 1 6 -2 0 -7 -2 -10 -5z"/>
<path d="M736 3509 c-11 -35 -16 -109 -8 -109 6 0 12 26 14 58 4 58 2 76 -6
51z"/>
<path d="M1995 3370 c-12 -4 -27 -15 -34 -24 -12 -14 -11 -16 5 -16 11 1 40 7
67 13 37 10 44 16 35 25 -14 14 -43 15 -73 2z"/>
<path d="M781 3254 c0 -11 3 -14 6 -6 3 7 2 16 -1 19 -3 4 -6 -2 -5 -13z"/>
<path d="M1682 2524 c1 -9 9 -19 16 -22 9 -3 13 2 10 14 -1 9 -9 19 -16 22 -9
3 -13 -2 -10 -14z"/>
<path d="M2130 2380 c0 -5 5 -10 10 -10 6 0 10 5 10 10 0 6 -4 10 -10 10 -5 0
-10 -4 -10 -10z"/>
<path d="M957 2294 c-10 -19 -12 -32 -7 -29 12 7 33 55 27 61 -2 2 -11 -12
-20 -32z"/>
<path d="M2461 2096 c-7 -28 -28 -62 -58 -96 l-47 -53 3 -72 c2 -56 -1 -76
-14 -88 -9 -9 -14 -21 -10 -26 3 -5 -6 -22 -21 -38 l-26 -28 18 37 c10 21 16
40 13 42 -4 4 -165 -18 -206 -29 -13 -3 -31 -25 -47 -57 -30 -60 -32 -78 -11
-78 9 0 43 -14 77 -31 l61 -31 24 29 25 28 -17 -29 c-17 -28 -17 -30 1 -43 61
-44 61 -44 27 -28 -18 8 -37 15 -43 15 -6 0 -27 -33 -46 -72 -20 -40 -33 -59
-30 -43 4 17 18 52 31 78 l25 48 -76 35 c-87 39 -91 40 -97 17 -3 -12 -5 -8
-6 9 -1 21 -7 28 -31 33 -32 7 -51 25 -26 25 8 0 18 -4 21 -10 15 -24 44 -8
69 36 14 26 26 50 26 53 0 4 -35 3 -77 -2 -65 -8 -85 -7 -130 8 -29 10 -53 23
-53 30 0 6 -11 22 -24 34 -29 28 -40 61 -20 61 17 0 9 18 -30 65 l-24 30 -32
-30 c-17 -16 -49 -56 -71 -89 l-39 -58 33 -32 c22 -23 59 -42 119 -62 51 -17
86 -34 84 -40 -3 -6 16 -31 40 -55 24 -24 44 -48 44 -54 0 -19 80 -108 84 -94
2 8 8 30 14 49 9 33 9 32 5 -15 -3 -43 0 -54 24 -84 43 -52 87 -98 73 -76 -11
17 21 -15 50 -52 16 -20 14 -94 -4 -156 -13 -45 -14 -62 -5 -73 8 -10 8 -14 0
-14 -6 0 -11 -16 -11 -35 0 -32 4 -37 61 -65 48 -25 64 -29 75 -19 11 9 14 8
14 -4 0 -9 13 -17 33 -21 17 -4 69 -22 115 -40 l82 -34 25 46 c14 26 23 36 19
22 -3 -14 -13 -36 -21 -48 -8 -13 -13 -25 -11 -26 2 -1 31 -22 66 -46 34 -23
62 -45 62 -48 0 -2 -11 3 -25 12 -13 9 -44 27 -69 41 l-44 24 -51 -83 c-28
-46 -51 -87 -51 -92 0 -9 227 -125 242 -124 4 0 19 21 32 48 30 57 33 51 7
-12 l-20 -45 33 -21 c54 -33 67 -57 15 -27 -25 15 -48 27 -51 27 -7 0 -102
-189 -97 -193 2 -2 39 -25 82 -50 43 -26 88 -54 101 -62 23 -15 25 -14 45 17
24 38 28 31 7 -11 -15 -27 -14 -28 35 -65 65 -50 63 -58 -2 -11 -28 20 -52 35
-53 33 -11 -15 -56 -98 -56 -102 0 -3 88 -6 196 -6 l196 0 -7 37 c-4 21 -10
42 -13 48 -4 5 -8 19 -9 29 -6 35 -85 239 -128 331 -24 50 -50 107 -59 129
-15 37 -99 181 -138 238 -10 15 -18 32 -18 38 0 5 -3 10 -8 10 -4 0 -13 9 -20
21 -11 17 -11 20 0 13 9 -5 8 -2 -2 11 -8 11 -18 24 -22 30 -5 5 -28 36 -53
67 -25 31 -45 61 -45 66 0 6 -7 12 -15 16 -8 3 -12 12 -9 21 3 8 1 15 -6 15
-6 0 -9 4 -6 8 2 4 -11 28 -30 51 -19 24 -34 38 -34 32 0 -7 -5 -9 -10 -6 -6
4 -8 11 -5 16 4 5 2 9 -4 9 -16 0 -10 160 10 235 20 78 24 136 10 151 -15 15
68 174 91 174 10 0 18 5 18 10 0 6 4 10 9 10 18 0 71 55 71 73 0 17 2 18 17 6
9 -8 -1 11 -22 41 -22 30 -59 84 -84 120 -52 76 -67 90 -97 90 -17 0 -24 -9
-33 -44z m115 -212 c-4 -9 -9 -15 -11 -12 -3 3 -3 13 1 22 4 9 9 15 11 12 3
-3 3 -13 -1 -22z m-182 -19 c3 -8 1 -15 -4 -15 -6 0 -10 7 -10 15 0 8 2 15 4
15 2 0 6 -7 10 -15z m66 -9 c0 -3 -4 -8 -10 -11 -5 -3 -10 -1 -10 4 0 6 5 11
10 11 6 0 10 -2 10 -4z m-653 -138 c-3 -8 -6 -5 -6 6 -1 11 2 17 5 13 3 -3 4
-12 1 -19z m43 -46 l25 -11 -30 0 c-30 -1 -55 14 -55 31 0 5 8 4 18 -1 9 -5
28 -14 42 -19z m277 -324 c-3 -8 -6 -5 -6 6 -1 11 2 17 5 13 3 -3 4 -12 1 -19z
m113 -52 c0 -3 -4 -8 -10 -11 -5 -3 -10 -1 -10 4 0 6 5 11 10 11 6 0 10 -2 10
-4z m-63 -53 c-3 -10 -5 -4 -5 12 0 17 2 24 5 18 2 -7 2 -21 0 -30z m184 -137
c27 -20 48 -40 45 -45 -3 -4 11 -15 31 -25 19 -9 33 -19 30 -22 -3 -4 -39 10
-79 29 -41 20 -99 45 -130 57 -31 11 -59 28 -63 37 -5 15 -4 15 13 0 10 -9 26
-17 34 -17 9 0 46 -14 84 -30 70 -32 101 -34 44 -3 -49 27 -93 67 -113 105
-18 31 -17 31 17 -9 20 -23 59 -58 87 -77z m-46 -96 c-23 -44 -30 -31 -9 16 9
22 18 34 21 27 2 -6 -3 -26 -12 -43z m590 -498 c-3 -3 -11 0 -18 7 -9 10 -8
11 6 5 10 -3 15 -9 12 -12z m-30 -192 c3 -5 1 -10 -4 -10 -6 0 -11 5 -11 10 0
6 2 10 4 10 3 0 8 -4 11 -10z"/>
<path d="M2269 2083 c-13 -16 -12 -17 4 -4 16 13 21 21 13 21 -2 0 -10 -8 -17
-17z"/>
<path d="M1860 1997 c0 -2 43 -42 95 -90 l94 -88 16 37 c18 44 18 44 3 44 -21
0 -121 54 -140 75 -12 14 -17 16 -18 6 0 -10 -5 -10 -25 3 -14 9 -25 15 -25
13z"/>
<path d="M0 658 l0 -658 405 0 405 0 -1 23 c-1 33 -16 115 -18 95 -1 -22 -24
-23 -41 -3 -12 15 -10 55 5 100 6 16 3 16 -14 -5 -17 -20 -20 -33 -16 -67 4
-24 2 -44 -5 -48 -5 -3 -10 -1 -10 4 0 7 -23 11 -54 11 -67 0 -72 4 -180 150
-73 98 -95 139 -161 294 -43 100 -88 225 -102 281 -19 76 -43 135 -101 245
-41 80 -84 165 -93 190 -18 44 -18 28 -19 -612z"/>
<path d="M2130 906 c0 -10 7 -49 16 -89 l17 -71 22 28 c13 16 32 45 44 66 l21
38 -42 15 c-24 8 -51 18 -60 22 -13 5 -18 2 -18 -9z"/>
<path d="M2238 832 c-14 -20 -35 -57 -47 -80 l-22 -42 23 -10 c28 -11 106 -59
97 -60 -4 0 -26 9 -50 19 -24 11 -46 18 -50 15 -4 -2 -2 -26 6 -52 7 -26 23
-84 35 -129 12 -46 26 -83 30 -83 4 0 22 23 40 50 18 28 34 50 36 50 4 0 -16
-46 -37 -83 -12 -23 -10 -25 124 -102 53 -32 103 -55 110 -52 13 5 111 176
105 182 -2 3 -60 32 -128 66 -111 54 -126 59 -135 44 -23 -38 -35 -48 -19 -16
15 33 15 35 -2 48 -10 7 -21 13 -26 13 -4 0 -8 5 -8 10 0 6 12 4 29 -5 l29
-15 31 50 c17 28 31 54 31 58 0 4 11 23 24 42 l23 34 -96 43 c-53 23 -103 42
-112 43 -9 0 -28 -17 -41 -38z"/>
<path d="M2274 375 c-3 -8 1 -47 9 -87 9 -40 19 -92 22 -116 7 -43 21 -58 97
-106 l26 -17 52 97 c42 77 50 98 39 105 -8 6 -34 21 -59 36 -25 14 -73 43
-107 65 -71 43 -72 43 -79 23z"/>
<path d="M2525 200 c-27 -42 -75 -140 -75 -151 0 -4 15 -17 34 -28 27 -17 50
-21 124 -21 l90 0 32 51 c17 28 29 56 27 63 -3 6 -50 37 -106 68 l-102 57 -24
-39z"/>
<path d="M2331 53 c5 -21 9 -42 9 -46 0 -5 17 -7 38 -5 52 4 51 35 -3 65 -22
12 -43 23 -46 23 -4 0 -3 -17 2 -37z"/>
<path d="M2426 15 c-4 -11 2 -15 21 -15 21 0 24 2 13 15 -16 19 -26 19 -34 0z"/>
</g>
</svg>
