<?xml version="1.0" standalone="no"?>
<!DOCTYPE svg PUBLIC "-//W3C//DTD SVG 20010904//EN"
 "http://www.w3.org/TR/2001/REC-SVG-20010904/DTD/svg10.dtd">
<svg version="1.0" xmlns="http://www.w3.org/2000/svg"
 width="756.000000pt" height="1074.000000pt" viewBox="0 0 756.000000 1074.000000"
 preserveAspectRatio="xMidYMid meet">

<g transform="translate(0.000000,1074.000000) scale(0.100000,-0.100000)"
fill="#000000" stroke="none">
<path d="M0 10729 c0 -7 164 -8 538 -3 295 4 539 8 541 10 2 2 -239 4 -537 4
-372 0 -542 -3 -542 -11z"/>
<path d="M1408 10731 c-2 -6 -923 -20 -1361 -21 l-47 0 0 -3945 c0 -3301 2
-3945 14 -3945 7 0 24 10 38 23 13 12 51 40 84 62 32 22 82 56 109 76 28 20
68 44 90 53 42 18 45 20 247 122 113 58 242 109 335 133 47 12 97 46 128 86
14 20 50 47 78 61 29 15 56 33 60 40 8 14 69 34 121 41 16 2 35 8 42 14 8 6
20 9 27 6 8 -3 14 0 14 7 0 8 -11 10 -30 8 l-30 -5 39 40 c22 22 43 38 48 35
5 -3 7 2 3 10 -3 9 0 33 8 54 19 57 27 124 14 124 -7 0 -4 12 6 27 14 20 18
49 19 119 0 51 4 90 9 87 4 -2 5 7 2 20 -5 18 -2 28 12 37 15 9 15 11 1 6 -15
-4 -17 6 -17 102 -1 114 5 139 26 116 10 -10 10 -15 -5 -23 -11 -7 -12 -10 -3
-11 8 0 11 -8 8 -23 -3 -12 -1 -31 3 -42 8 -19 9 -19 9 3 1 13 5 21 10 18 5
-4 14 6 19 21 7 20 9 -29 6 -159 -3 -104 -1 -188 3 -188 8 0 65 95 71 117 2 7
8 13 13 13 5 0 9 7 9 15 0 8 5 15 10 15 6 0 10 7 10 15 0 8 9 20 20 27 11 7
20 18 20 24 0 7 7 15 16 18 8 3 13 10 10 15 -3 5 1 14 9 21 8 7 13 23 11 35
-4 21 24 65 41 65 4 0 2 -5 -5 -12 -7 -7 -12 -21 -12 -32 0 -20 0 -20 15 1 8
11 17 39 21 62 10 62 26 62 18 0 -5 -37 -4 -50 4 -45 6 4 9 13 5 21 -3 8 0 15
6 15 6 0 11 10 11 23 0 12 7 30 15 41 13 18 14 17 20 -5 6 -26 -18 -96 -32
-91 -4 1 -9 -6 -11 -17 -2 -13 -9 -18 -18 -14 -8 3 -14 0 -14 -6 0 -6 5 -11
10 -11 6 0 10 -5 10 -11 0 -6 -7 -9 -15 -5 -12 4 -14 0 -10 -17 4 -14 -1 -30
-15 -44 -11 -12 -20 -27 -20 -33 0 -6 -9 -21 -20 -32 -11 -12 -16 -24 -11 -28
10 -5 -3 -23 -114 -158 -58 -71 -98 -132 -90 -140 3 -3 5 0 5 6 0 7 5 12 12
12 6 0 3 -9 -7 -20 -10 -11 -25 -20 -33 -20 -9 0 -12 -6 -8 -16 3 -9 6 -20 6
-25 0 -6 4 -8 9 -5 5 3 12 -6 16 -22 l7 -27 13 35 c8 19 14 31 14 26 1 -5 10
3 22 18 23 29 51 35 47 10 -3 -16 8 -21 55 -26 9 -1 17 -6 17 -10 0 -4 7 -5
15 -2 18 7 20 -7 3 -25 -11 -11 -9 -13 10 -8 13 3 22 0 22 -6 1 -7 7 -1 14 13
11 19 11 40 4 90 -9 68 -3 141 14 174 6 11 11 33 12 50 1 17 6 31 11 31 15 0
35 15 35 26 0 6 -5 7 -10 4 -6 -3 -10 -1 -10 4 0 6 7 11 15 11 8 0 15 6 15 14
0 7 7 19 15 26 13 11 15 10 10 -6 -4 -10 3 -2 15 20 12 21 19 47 17 58 -4 15
-2 18 15 12 16 -5 20 -3 15 9 -3 8 1 23 9 34 15 17 15 17 11 -4 -4 -19 -2 -21
13 -13 23 12 34 43 25 71 -5 14 0 29 17 46 12 15 17 23 11 19 -9 -5 -11 -2 -7
8 3 9 12 16 19 16 7 0 16 13 20 30 4 16 11 32 16 36 5 3 -1 -21 -12 -53 -12
-32 -26 -59 -30 -61 -9 -4 -13 -62 -4 -62 9 0 45 40 45 50 0 6 7 10 15 10 8 0
15 7 15 16 0 8 11 30 25 48 14 18 22 36 17 41 -4 5 -1 5 7 0 11 -6 13 -3 9 13
-4 12 -2 20 2 17 5 -3 11 1 13 7 4 9 6 9 7 -2 3 -27 40 114 40 153 0 20 4 37
9 37 5 0 7 8 5 18 -2 9 3 26 12 37 15 20 16 19 44 -15 16 -19 39 -52 52 -73
13 -20 56 -87 96 -148 39 -60 72 -114 72 -119 0 -4 4 -10 8 -12 5 -1 32 -37
61 -78 29 -41 68 -95 87 -120 19 -25 59 -77 89 -116 55 -71 352 -361 391 -382
11 -6 50 -15 86 -19 60 -9 65 -8 60 9 -2 10 -11 18 -19 18 -8 0 -21 7 -29 15
-12 11 -20 12 -35 5 -25 -14 -27 14 -1 29 9 6 12 11 5 11 -6 0 -15 -4 -18 -10
-11 -18 -23 -11 -18 10 4 14 -2 22 -21 30 -14 5 -26 14 -26 19 0 5 -11 13 -24
18 -23 8 -96 67 -96 78 0 3 -11 16 -25 29 -14 13 -25 28 -25 35 0 6 -4 11 -10
11 -5 0 -10 7 -10 16 0 10 -6 14 -15 10 -9 -3 -15 0 -15 8 0 14 -65 91 -132
156 -21 20 -38 40 -38 44 0 4 -6 14 -12 21 -18 20 -25 29 -104 130 -68 88 -98
129 -119 165 -6 10 -16 24 -22 31 -6 8 -20 41 -31 74 -17 45 -19 61 -9 67 9 6
8 8 -3 8 -10 0 -11 3 -4 8 6 4 14 25 18 47 13 82 27 181 29 208 1 15 9 32 17
37 12 8 12 10 1 10 -9 0 -11 6 -6 18 11 25 14 181 5 224 -4 22 -4 40 2 46 12
12 1 35 -13 27 -5 -4 -9 -1 -9 4 0 6 3 11 8 11 9 0 10 56 0 65 -3 4 -4 22 -2
42 3 23 -2 43 -14 61 -11 15 -27 45 -38 67 -10 22 -31 62 -47 88 -16 27 -29
59 -29 72 0 14 -4 22 -8 20 -16 -10 -64 145 -88 283 -12 68 -15 102 -8 102 6
0 5 4 -3 9 -9 6 -12 19 -8 40 5 21 3 31 -6 31 -8 0 -7 4 3 10 10 6 11 10 3 10
-9 0 -7 10 5 32 16 29 17 34 3 49 -35 39 -41 49 -41 72 0 12 -5 28 -10 33 -6
6 -12 21 -15 33 -2 13 -10 30 -17 38 -10 13 -14 13 -22 1 -25 -32 -139 -66
-120 -36 4 7 3 8 -4 4 -6 -4 -20 -1 -31 6 -18 11 -18 14 -5 39 19 38 19 83 -1
76 -11 -5 -13 0 -9 22 6 29 -18 62 -31 41 -3 -5 -16 -10 -29 -10 -18 0 -25 -8
-35 -40 -6 -21 -16 -42 -21 -45 -11 -7 -78 82 -113 150 -35 69 -50 140 -36
166 11 21 11 21 25 1 7 -11 23 -22 34 -25 23 -6 24 -4 11 21 -20 39 -40 113
-35 127 4 8 1 15 -5 15 -8 0 -8 6 1 19 9 15 15 17 25 9 8 -6 12 -13 9 -15 -2
-3 14 -22 36 -44 30 -29 43 -36 49 -27 6 10 16 9 43 -5 28 -13 36 -23 36 -44
1 -49 32 -97 70 -110 27 -9 38 -8 48 2 11 10 8 22 -17 70 -17 32 -31 67 -31
77 0 11 -8 22 -18 24 -9 3 -28 20 -40 39 -28 41 -22 92 17 145 14 19 26 37 28
39 1 2 9 -4 18 -13 15 -15 15 -17 1 -32 -21 -20 -20 -26 2 -23 32 3 42 -1 42
-17 0 -10 6 -14 14 -11 15 6 25 -33 29 -116 1 -24 6 -36 14 -33 7 3 10 -1 7
-8 -3 -7 5 -60 16 -117 12 -57 22 -110 23 -116 0 -9 4 -10 13 -2 8 7 14 6 20
-2 5 -8 3 -9 -6 -4 -10 6 -12 4 -6 -11 4 -10 13 -45 21 -76 7 -31 16 -61 19
-67 4 -5 2 -12 -4 -16 -6 -4 -5 -13 3 -26 10 -16 9 -22 -3 -30 -13 -9 -13 -10
0 -6 10 2 15 18 16 48 0 33 5 45 17 47 9 2 17 8 17 14 0 5 -7 8 -15 4 -15 -5
-42 30 -31 42 3 3 6 0 6 -6 0 -7 5 -12 10 -12 6 0 10 7 10 15 0 8 -4 15 -8 15
-12 0 -10 44 2 52 6 4 4 9 -6 13 -9 4 -14 14 -12 23 10 53 11 101 2 96 -6 -4
-5 2 1 14 13 24 -5 76 -22 65 -6 -3 -7 21 -3 68 3 41 7 83 7 94 1 11 10 76 20
145 21 135 39 210 51 210 4 0 8 16 8 35 0 19 5 35 10 35 6 0 10 8 10 17 0 33
44 158 72 204 15 25 28 52 28 60 0 8 8 23 16 34 15 19 16 19 12 -12 -3 -18 -1
-33 4 -33 4 0 8 8 8 18 0 9 7 36 15 60 9 24 17 52 18 63 2 10 9 25 15 31 7 7
12 16 12 20 0 5 9 18 19 30 11 11 17 26 14 34 -3 8 1 14 11 14 9 0 16 8 16 20
0 11 4 20 8 20 5 0 14 12 20 26 13 27 -1 70 -19 59 -25 -16 -3 14 42 56 30 28
49 54 46 62 -3 7 4 24 14 38 10 13 19 19 19 12 0 -6 -7 -18 -15 -27 -18 -18
-6 -29 15 -13 8 7 28 31 44 55 16 23 33 42 37 42 5 0 8 3 7 8 -5 17 14 52 24
46 7 -5 9 -1 5 9 -3 10 -2 17 3 17 6 0 10 6 10 14 0 8 7 16 15 20 21 8 19 26
-2 26 -15 0 -16 2 -3 9 8 6 18 7 24 4 5 -3 6 -1 2 5 -4 7 -2 12 4 12 6 0 8 5
4 11 -5 8 -10 6 -16 -5 -5 -9 -16 -16 -25 -16 -10 0 -13 -6 -9 -16 3 -8 -3
-24 -16 -37 -11 -12 -17 -16 -13 -8 5 10 4 12 -4 7 -6 -4 -9 -11 -6 -15 6 -11
-33 -46 -42 -38 -4 4 2 14 13 23 18 15 18 15 -3 5 -26 -13 -33 -30 -21 -53 7
-16 5 -17 -17 -8 -17 6 -24 6 -20 0 7 -12 -22 -70 -36 -70 -6 0 -7 5 -3 12 4
7 3 8 -4 4 -6 -4 -9 -13 -5 -21 3 -11 1 -13 -10 -10 -9 4 -24 -9 -44 -39 -17
-25 -33 -42 -37 -38 -4 3 -4 -2 0 -12 5 -13 4 -17 -3 -13 -6 4 -10 0 -9 -9 0
-9 -9 -23 -22 -31 -21 -15 -22 -14 -16 3 4 15 2 14 -15 -5 -12 -13 -24 -21
-27 -18 -6 6 32 85 54 110 8 9 13 20 9 23 -3 3 -16 -6 -29 -21 -13 -15 -31
-31 -42 -37 -17 -9 -17 -8 -5 9 53 72 63 82 74 73 6 -5 17 -5 24 -1 9 6 10 11
2 15 -6 4 -11 2 -11 -5 0 -10 -3 -10 -11 -2 -9 9 -6 19 10 41 11 17 21 35 21
40 0 6 14 22 30 35 17 14 30 29 30 33 0 4 7 16 17 26 19 22 5 24 -23 3 -10 -8
-28 -15 -38 -15 -19 0 -19 0 0 22 19 21 19 21 -3 16 -30 -8 -29 5 0 21 13 7
23 21 24 32 1 12 -3 17 -9 13 -6 -4 -8 -3 -5 4 4 5 16 8 26 5 19 -5 38 13 26
25 -3 3 -10 0 -15 -8 -6 -10 -10 -11 -10 -3 0 16 37 36 52 27 6 -4 8 -3 4 4
-7 12 34 47 67 58 11 3 48 28 81 53 34 26 77 57 97 69 20 12 43 30 50 39 21
25 -78 -32 -146 -84 -5 -5 -27 -17 -47 -28 -37 -19 -38 -19 -52 0 -9 11 -15
25 -15 30 0 6 3 4 6 -2 2 -7 9 -13 15 -13 6 0 8 7 4 15 -3 8 0 14 6 12 7 -1
12 7 13 17 0 11 7 22 15 24 13 5 13 3 1 -11 -12 -15 -11 -17 5 -18 16 0 16 -2
-3 -11 -13 -6 -23 -15 -23 -20 0 -5 10 -2 22 6 16 12 22 27 23 56 1 22 -1 40
-4 40 -14 0 -90 -68 -83 -74 3 -4 -1 -4 -11 0 -14 5 -15 9 -5 21 8 10 2 9 -24
-4 -20 -10 -35 -20 -33 -23 2 -3 -3 -14 -11 -25 -13 -18 -14 -18 -14 -1 0 15
-3 16 -15 6 -8 -7 -15 -19 -15 -28 0 -8 -3 -12 -7 -9 -3 4 -15 -5 -25 -20 -10
-16 -18 -22 -18 -15 0 21 -20 13 -32 -13 -6 -14 -17 -24 -24 -21 -8 3 -16 1
-19 -4 -4 -6 -11 -10 -18 -10 -6 0 4 16 23 35 35 36 34 43 -2 24 -15 -8 -19
-8 -14 0 15 24 -12 9 -62 -35 -29 -26 -55 -44 -58 -42 -2 3 32 43 76 89 44 46
80 90 80 97 0 6 5 12 11 12 5 0 8 4 5 9 -8 13 27 72 39 67 6 -2 9 -9 7 -15 -1
-7 2 -10 7 -6 6 3 7 13 4 23 -3 9 -3 14 2 10 4 -4 21 6 37 22 31 32 50 41 28
14 -12 -13 -10 -14 16 -2 39 17 174 97 199 118 11 9 38 25 60 35 22 10 45 20
50 23 6 3 4 -2 -4 -11 -20 -25 -1 -21 27 6 16 14 23 16 20 7 -3 -9 6 -23 21
-33 21 -15 23 -18 6 -15 -11 2 -20 -1 -20 -7 0 -5 -4 -16 -8 -23 -6 -9 1 -11
26 -10 19 2 33 7 29 12 -3 5 2 6 12 3 11 -5 15 -3 10 5 -5 8 -2 9 10 5 9 -4
15 -3 12 2 -3 5 7 17 22 26 l27 18 -19 -21 c-18 -21 -18 -21 12 -12 17 4 36
11 42 15 6 4 16 2 23 -3 7 -6 26 -12 42 -14 26 -4 28 -5 10 -12 -97 -40 -304
-158 -232 -133 10 4 43 14 75 23 31 9 92 32 136 51 77 33 203 65 219 56 4 -2
0 -11 -8 -19 -8 -9 -19 -13 -24 -10 -5 4 -20 2 -33 -3 -13 -5 -49 -17 -80 -26
-32 -9 -60 -21 -64 -26 -3 -5 -16 -9 -29 -9 -27 0 -41 -15 -24 -25 15 -10 -23
-48 -69 -69 -20 -10 -52 -37 -69 -61 -40 -53 -42 -67 -7 -34 26 23 26 23 15 2
-6 -12 -18 -26 -25 -30 -15 -8 -66 -109 -66 -131 0 -20 -60 -146 -66 -139 -3
3 -1 14 5 25 6 12 11 24 11 29 -1 4 -9 -8 -19 -27 -12 -22 -15 -37 -9 -41 6
-4 2 -22 -11 -47 -12 -23 -21 -48 -21 -57 0 -8 -4 -15 -9 -15 -5 0 -7 -10 -4
-21 5 -19 8 -20 17 -7 6 8 22 18 36 21 14 4 36 17 50 29 14 13 45 36 70 53 25
16 55 39 67 50 12 11 24 18 27 15 9 -8 38 39 31 50 -3 6 3 10 14 10 12 0 21 5
21 10 0 6 6 10 14 10 7 0 21 10 29 23 14 21 13 24 -1 34 -14 9 -11 12 22 21
46 13 60 7 31 -14 -18 -13 -16 -14 28 -12 26 2 47 6 47 9 0 6 20 10 68 11 39
2 42 13 5 23 -21 5 -24 8 -12 16 7 5 23 9 33 9 10 0 24 7 30 15 6 8 28 15 49
17 32 2 36 5 31 23 -3 11 -2 15 3 10 24 -30 115 -46 129 -24 5 8 -2 10 -21 6
-36 -6 -55 1 -55 20 0 10 6 13 16 9 9 -3 26 -6 39 -6 13 0 31 -7 39 -16 9 -9
24 -13 36 -10 11 3 29 9 40 12 14 4 20 1 20 -10 0 -13 13 -16 66 -16 36 0 74
-5 84 -10 13 -7 21 -7 25 0 8 13 25 13 25 -1 0 -6 -9 -13 -20 -16 -11 -3 -20
-9 -20 -13 0 -5 15 -4 32 1 45 13 58 11 58 -6 0 -19 4 -19 41 1 17 8 34 12 37
8 4 -4 1 -9 -6 -11 -7 -3 -17 -13 -22 -23 -9 -16 -7 -17 15 -6 14 6 25 14 25
19 0 4 5 7 10 7 6 0 10 -9 10 -19 0 -11 5 -23 10 -26 6 -4 10 -3 9 2 -1 4 -1
16 0 26 1 25 21 11 21 -15 0 -17 2 -18 15 -8 10 9 15 9 15 1 0 -6 8 -11 18
-11 18 0 69 -45 65 -58 -1 -4 14 -6 32 -5 19 1 35 -2 35 -7 0 -6 -10 -11 -22
-11 -14 -1 -6 -5 18 -11 36 -9 43 -15 48 -41 3 -17 2 -33 -4 -37 -5 -3 -1 -14
11 -24 25 -21 38 -14 18 11 -12 15 -12 16 4 10 10 -4 23 -7 28 -7 8 0 -7 -36
-21 -50 -13 -13 -10 -40 5 -40 9 0 13 -5 10 -10 -4 -6 -15 -8 -26 -5 -11 4
-19 2 -19 -5 0 -6 14 -13 32 -17 30 -6 30 -7 9 -15 -21 -7 -21 -9 -7 -30 19
-27 21 -75 4 -81 -10 -3 -9 -9 3 -23 9 -10 14 -25 11 -33 -3 -8 0 -11 7 -7 6
4 11 1 11 -8 0 -19 -11 -21 -28 -4 -8 8 -12 8 -12 1 0 -6 7 -17 16 -24 12 -10
15 -25 11 -57 -3 -29 0 -47 9 -57 20 -19 17 -25 -11 -25 -14 0 -25 -4 -25 -10
0 -5 5 -9 11 -7 16 3 16 -58 -1 -78 -7 -8 -10 -19 -6 -22 4 -4 11 -1 16 7 5 8
12 11 16 7 4 -4 3 -12 -3 -18 -16 -16 -4 -46 20 -54 22 -7 21 -7 -3 -15 -18
-6 -20 -9 -7 -10 28 -4 31 -5 45 -14 9 -5 12 -20 9 -42 -4 -25 -1 -34 10 -34
8 0 11 5 8 10 -3 6 -2 10 3 10 21 0 20 -28 -1 -35 -21 -7 -21 -8 4 -12 17 -3
29 -12 33 -26 3 -11 8 -18 12 -14 6 6 19 -10 40 -51 9 -18 -24 -40 -52 -34
-17 3 -24 0 -24 -11 0 -9 -9 -15 -22 -15 -72 0 -258 -39 -258 -53 0 -5 -6 -6
-14 -3 -8 3 -17 0 -21 -5 -3 -6 -10 -9 -15 -6 -5 3 -17 -8 -26 -25 -10 -16
-22 -30 -27 -30 -22 0 -107 -44 -107 -55 0 -7 -12 -16 -27 -20 -26 -7 -26 -8
-8 -15 17 -7 17 -9 3 -9 -10 -1 -18 -7 -18 -14 0 -7 -9 -18 -20 -25 -12 -7
-18 -17 -15 -22 4 -6 0 -13 -8 -16 -14 -5 -22 -44 -33 -149 -10 -90 0 -457 12
-477 3 -4 -1 -8 -8 -8 -9 0 -10 -3 -2 -8 6 -4 14 -20 17 -37 3 -16 15 -61 27
-100 27 -91 22 -139 -20 -178 -17 -16 -43 -47 -57 -69 -17 -26 -36 -41 -55
-45 -27 -5 -49 -31 -54 -62 -5 -31 15 -58 53 -69 53 -17 77 -38 112 -105 45
-84 40 -105 -30 -113 -24 -3 -50 -11 -58 -17 -8 -7 -16 -11 -18 -9 -13 9 -48
-2 -66 -21 -21 -23 -54 -27 -41 -5 4 5 -7 8 -27 6 -20 -3 -34 -10 -34 -18 0
-7 -6 -15 -13 -17 -6 -3 -12 2 -12 11 0 9 -4 16 -10 16 -5 0 -10 -6 -10 -14 0
-19 -24 -26 -77 -24 -41 2 -56 12 -31 20 9 3 9 6 0 12 -6 4 -19 -2 -29 -14
-18 -21 -43 -27 -43 -11 0 5 8 12 18 14 9 3 -17 2 -58 -1 -41 -4 -127 -6 -191
-4 -92 1 -119 -1 -129 -13 -13 -16 -6 -35 14 -35 20 0 71 -28 91 -50 10 -11
24 -20 31 -20 7 0 27 -13 43 -29 33 -33 42 -31 35 6 -5 24 -3 25 31 20 19 -3
35 -2 35 4 0 5 5 9 11 9 6 0 8 -7 5 -16 -5 -14 -4 -15 8 -5 7 6 22 8 31 4 15
-5 17 -2 12 16 -5 21 -3 22 35 16 22 -4 57 -8 77 -9 51 -4 151 -28 151 -37 0
-14 -22 -22 -60 -22 -30 0 -37 -3 -32 -15 3 -10 1 -13 -6 -8 -6 3 -13 2 -17
-4 -3 -5 3 -10 14 -10 12 0 21 6 22 13 0 6 4 2 10 -11 13 -33 1 -70 -24 -78
-12 -4 -34 -17 -50 -30 -25 -21 -26 -24 -10 -33 10 -6 14 -11 9 -11 -15 0 -91
23 -103 32 -7 6 -14 4 -19 -3 -4 -7 -2 -15 4 -17 7 -2 12 -14 12 -26 0 -21 31
-56 49 -56 5 0 19 -11 32 -25 13 -13 31 -25 39 -25 8 0 24 -7 34 -15 11 -8 28
-12 38 -9 11 3 24 1 31 -4 7 -5 36 -9 65 -8 28 0 53 -2 55 -6 1 -4 21 -9 44
-11 53 -5 73 -21 73 -59 0 -26 2 -29 15 -18 12 10 15 10 15 -3 0 -8 -8 -18
-17 -21 -11 -5 -13 -10 -6 -17 16 -16 4 -52 -12 -39 -10 8 -16 3 -24 -21 -6
-18 -11 -41 -11 -52 0 -13 -5 -17 -15 -13 -10 4 -15 -1 -15 -14 0 -11 -4 -20
-10 -20 -5 0 -10 -8 -10 -18 0 -10 -11 -25 -25 -32 -14 -7 -25 -19 -25 -27 0
-7 -8 -13 -17 -14 -10 0 -13 -3 -6 -5 8 -4 7 -11 -4 -24 -9 -10 -20 -17 -25
-14 -4 3 -11 -2 -14 -11 -5 -12 -9 -13 -20 -4 -12 9 -17 8 -27 -4 -13 -17 -94
-29 -103 -15 -3 4 -9 6 -14 3 -5 -3 -14 4 -20 15 -11 20 -13 20 -35 6 -13 -9
-25 -11 -27 -6 -2 5 -23 6 -48 3 -33 -5 -39 -8 -25 -13 11 -4 20 -11 20 -17 0
-5 17 -25 37 -45 21 -19 34 -39 30 -43 -4 -4 4 -4 16 0 21 6 23 4 17 -14 -6
-19 -2 -21 34 -21 30 0 41 -4 41 -15 0 -8 7 -15 15 -15 18 0 20 -17 3 -23 -7
-2 5 -4 27 -3 32 1 40 -3 43 -19 2 -11 8 -24 12 -29 5 -5 6 1 3 13 -4 17 -2
20 11 15 9 -3 14 -10 11 -14 -7 -12 23 -33 39 -27 8 3 17 -1 20 -9 3 -8 13
-14 22 -14 13 0 14 -3 5 -14 -9 -11 -9 -15 0 -18 7 -2 9 -10 5 -17 -5 -7 -15
-10 -23 -7 -8 3 -12 2 -9 -3 3 -5 17 -8 31 -8 21 0 24 3 19 20 -6 20 -6 21 17
5 15 -10 23 -23 21 -37 -3 -23 13 -29 22 -8 3 6 3 0 0 -15 -9 -41 26 -91 39
-55 2 6 3 0 1 -15 -3 -22 1 -28 16 -28 11 0 20 -5 20 -11 0 -6 -9 -9 -20 -6
-11 3 -18 1 -14 -4 3 -5 11 -9 18 -9 24 0 26 -38 2 -46 -18 -6 -17 -8 11 -11
19 -2 39 -14 48 -26 8 -11 18 -17 22 -13 5 5 2 11 -4 13 -7 3 -13 9 -13 15 0
6 7 5 16 -3 10 -8 14 -23 12 -41 -3 -17 0 -27 6 -26 6 1 28 -13 48 -32 28 -24
35 -37 27 -46 -7 -8 -6 -14 2 -19 6 -4 15 -1 20 6 7 11 10 9 15 -9 4 -12 11
-22 17 -22 7 0 7 -4 -1 -12 -7 -7 -12 -18 -12 -26 0 -42 88 125 123 234 23 69
47 207 47 265 0 26 4 50 9 53 4 3 11 19 14 36 7 31 37 43 37 15 0 -8 5 -15 11
-15 6 0 8 9 4 23 -6 20 -5 20 18 -5 13 -15 27 -25 30 -22 3 3 3 -3 0 -14 -2
-11 1 -23 8 -27 8 -6 10 -4 5 6 -4 8 2 3 13 -11 11 -14 24 -34 27 -45 4 -11
15 -31 24 -45 10 -14 26 -52 35 -85 10 -33 21 -65 26 -71 5 -6 6 -14 3 -17
-10 -10 19 -65 32 -60 7 2 20 34 30 71 20 76 41 110 29 47 -12 -66 -14 -112
-5 -162 4 -26 8 -40 9 -30 2 33 19 8 26 -40 9 -65 52 -145 74 -138 11 3 20 -5
30 -28 16 -36 51 -84 51 -71 1 5 7 -2 14 -15 l13 -24 13 34 c12 32 13 33 19
11 5 -19 11 -7 30 55 13 43 36 112 51 153 15 41 30 89 34 106 4 17 16 41 26
52 11 12 17 27 14 35 -3 8 0 18 5 22 6 3 9 10 6 15 -3 5 -1 11 5 15 5 3 7 19
3 35 -3 17 -1 30 4 30 5 0 9 17 10 38 1 20 -1 29 -4 20 -2 -10 -9 -18 -14 -18
-6 0 -8 8 -5 18 10 31 26 156 26 204 0 26 4 50 10 53 6 3 10 15 10 26 0 10 4
19 9 19 11 0 21 -37 12 -45 -3 -4 -6 -32 -7 -63 -1 -31 -4 -86 -8 -122 -3 -35
-1 -67 4 -70 5 -3 5 -20 0 -40 -4 -19 -8 -29 -9 -21 -1 8 -3 12 -6 9 -3 -3 -1
-16 4 -29 l9 -24 7 28 c8 29 20 35 29 15 3 -7 3 -1 0 14 -3 15 -1 35 6 45 10
16 11 16 6 -6 -2 -13 -1 -34 4 -47 7 -18 6 -24 -5 -24 -16 0 -30 -35 -20 -50
4 -6 3 -9 -2 -8 -4 2 -8 0 -8 -3 0 -4 -8 -16 -18 -27 -9 -10 -15 -26 -12 -34
4 -9 0 -22 -8 -29 -9 -9 -11 -22 -6 -34 4 -11 8 -27 8 -35 -1 -8 -5 -2 -11 13
l-10 28 -15 -28 c-8 -15 -16 -32 -17 -38 -3 -12 -14 -40 -27 -74 -5 -13 -7
-32 -4 -42 3 -10 -9 -55 -28 -101 -48 -117 -67 -184 -71 -255 -3 -35 -7 -67
-10 -72 -3 -5 -2 -20 3 -33 6 -13 10 -17 11 -8 1 10 4 8 10 -6 12 -30 44 -37
47 -10 2 12 6 48 11 81 l7 60 8 -70 c4 -38 13 -75 19 -82 8 -10 6 -13 -8 -14
-18 0 -18 -1 1 -8 14 -6 22 -4 27 8 4 9 7 -1 7 -26 1 -23 4 -44 9 -46 4 -3 6
20 5 50 0 32 -6 59 -14 63 -7 5 -9 15 -4 26 6 17 9 15 17 -10 6 -16 17 -40 24
-54 l13 -26 16 38 c9 22 13 42 8 45 -14 9 -37 71 -29 78 3 3 6 0 6 -8 0 -9 7
-24 15 -35 14 -18 14 -18 8 4 -10 42 5 22 22 -27 9 -27 22 -52 29 -54 20 -8
12 37 -13 72 -14 19 -18 32 -11 36 8 5 7 11 -1 21 -6 7 -15 11 -20 8 -5 -3 -6
2 -3 10 3 9 1 16 -5 16 -6 0 -11 7 -11 16 0 10 15 -1 40 -28 l40 -43 -21 48
c-11 27 -18 51 -15 54 3 3 11 -7 18 -23 7 -16 15 -31 18 -34 3 -3 16 -18 28
-34 12 -16 22 -26 22 -22 0 11 -63 121 -74 128 -8 5 -7 8 1 8 6 0 15 -5 18
-10 4 -6 10 -8 15 -5 4 3 11 -2 14 -11 4 -9 9 -14 12 -11 3 3 17 -6 30 -20 28
-30 31 -18 9 34 -20 47 -19 51 5 20 11 -14 20 -31 20 -39 0 -19 37 -95 50
-103 5 -3 10 -13 10 -22 0 -9 11 -31 25 -49 30 -39 95 -175 89 -185 -2 -4 3
-10 12 -13 12 -4 14 -14 9 -36 -6 -25 -4 -29 10 -23 15 5 16 3 6 -16 -7 -12
-16 -19 -22 -16 -5 4 -14 3 -20 -1 -8 -5 -7 -9 1 -14 7 -5 15 -23 17 -41 2
-18 8 -38 14 -44 9 -7 10 -1 5 23 -4 21 -2 31 5 27 6 -4 8 4 4 22 l-5 28 11
-27 c7 -19 7 -38 0 -64 -11 -40 -7 -60 6 -28 9 22 35 31 27 10 -3 -8 -1 -17 5
-21 6 -3 11 -11 11 -16 0 -6 -4 -8 -9 -5 -5 3 -12 -1 -15 -10 -3 -8 -2 -13 2
-10 4 3 8 -10 8 -28 0 -19 8 -41 17 -50 20 -20 21 -32 6 -41 -7 -5 -5 -13 5
-24 22 -24 17 -81 -7 -81 -14 0 -17 -5 -12 -21 5 -16 4 -19 -5 -14 -9 6 -11
-3 -8 -34 3 -41 -7 -57 -15 -23 -4 16 -5 16 -12 -2 -5 -11 -3 -26 3 -37 7 -10
12 -25 12 -33 0 -8 7 -16 15 -20 8 -3 15 -12 15 -21 0 -8 6 -15 13 -15 7 0 30
-20 51 -45 22 -25 44 -45 48 -45 5 0 7 3 5 8 -3 4 5 8 18 8 19 2 22 -3 21 -29
-2 -48 17 -41 54 20 19 31 45 67 57 79 13 13 23 30 23 39 0 24 18 18 22 -8 2
-12 -5 -31 -14 -41 -10 -11 -18 -27 -18 -35 0 -14 -1 -14 -10 -1 -8 12 -10 9
-10 -12 0 -15 -5 -30 -10 -33 -6 -3 -17 -20 -25 -36 -18 -34 -22 -28 78 -134
38 -40 79 -76 91 -79 12 -3 28 -17 36 -31 10 -18 19 -24 33 -19 16 5 18 2 12
-17 -6 -18 -4 -21 9 -16 9 4 15 2 13 -5 -1 -7 7 -12 18 -13 12 0 19 -6 17 -14
-2 -9 3 -11 14 -7 14 5 15 4 5 -8 -9 -11 -7 -15 9 -19 12 -3 18 -1 14 5 -4 6
3 5 15 -2 12 -6 19 -15 16 -21 -4 -5 -1 -9 6 -9 7 0 9 -3 6 -7 -10 -10 24 -43
44 -43 10 0 21 -4 24 -10 3 -6 -4 -10 -16 -10 -26 0 -22 -8 7 -13 10 -2 28 -8
39 -14 11 -6 23 -10 27 -10 10 3 72 -55 92 -85 13 -20 15 -31 7 -45 -10 -17
-10 -17 -11 0 0 9 -7 17 -15 17 -8 0 -15 -7 -15 -16 0 -8 5 -12 11 -8 8 4 9 0
4 -15 -5 -15 -2 -21 9 -21 9 0 16 -8 17 -17 0 -15 2 -15 9 2 7 18 8 18 15 -8
4 -15 10 -26 13 -23 2 3 14 0 26 -6 11 -7 24 -11 29 -10 15 4 6 -60 -13 -86
-17 -23 -18 -32 -9 -67 20 -77 32 -92 120 -150 86 -57 87 -58 78 -89 -5 -17
-18 -38 -29 -48 -25 -21 -25 -44 0 -85 11 -18 15 -33 10 -33 -6 0 -10 -4 -10
-10 0 -5 7 -10 15 -10 8 0 15 -9 15 -19 0 -11 8 -34 17 -53 9 -18 23 -45 30
-61 8 -15 11 -27 8 -27 -4 0 3 -13 14 -28 11 -16 25 -48 30 -72 5 -24 15 -47
22 -51 8 -4 10 -11 6 -15 -4 -4 -2 -12 3 -19 5 -6 12 -43 16 -81 3 -38 9 -84
14 -101 6 -23 5 -33 -3 -33 -8 0 -7 -4 2 -9 8 -5 11 -15 8 -23 -3 -8 -1 -37 5
-64 14 -69 16 -104 17 -229 1 -149 1 -144 -10 -150 -33 -21 18 -25 321 -25
l330 0 0 907 c0 846 -2 907 -18 922 -20 19 -26 36 -25 75 0 26 -1 27 -12 13
-11 -15 -13 -15 -24 6 -9 16 -10 17 -6 3 6 -19 5 -19 -15 -1 -11 10 -20 23
-19 29 0 6 3 6 6 -2 2 -6 9 -10 14 -6 13 8 11 44 -2 44 -6 0 -9 7 -5 15 3 8 1
15 -5 15 -5 0 -7 12 -3 28 4 21 3 24 -5 12 -8 -12 -11 -5 -11 29 0 25 -6 52
-14 60 -17 20 -39 96 -38 136 0 17 -3 32 -7 35 -13 10 -43 62 -32 56 6 -4 11
-2 11 4 0 6 5 8 12 4 7 -4 8 -3 4 4 -4 7 -14 12 -22 12 -8 0 -14 8 -14 18 0 9
-16 30 -35 45 -36 29 -44 51 -22 61 10 5 10 7 0 12 -7 3 -13 10 -13 16 0 5
-14 29 -30 53 -17 24 -29 48 -28 52 4 12 -26 73 -35 73 -5 0 -6 4 -2 9 3 5 1
12 -5 16 -5 3 -10 21 -10 38 0 27 -4 32 -24 32 -13 0 -22 -3 -19 -7 2 -5 0 -8
-5 -8 -6 0 -12 7 -16 15 -3 8 -12 15 -20 15 -9 0 -13 -6 -10 -14 3 -8 1 -17
-5 -21 -6 -3 -11 -2 -11 3 0 5 -16 27 -35 48 -19 21 -35 43 -35 49 0 7 -9 20
-19 29 -10 10 -22 34 -26 54 -4 20 -11 40 -17 43 -11 7 -28 105 -37 217 -1 6
-8 12 -16 12 -11 0 -14 -7 -9 -25 4 -15 2 -25 -5 -25 -6 0 -11 -9 -11 -20 0
-25 -18 -26 -27 -3 -4 10 -13 24 -20 31 -7 7 -16 25 -19 40 -3 15 -11 41 -19
57 -7 17 -17 44 -22 61 -10 29 -9 31 11 27 15 -3 13 1 -9 13 -17 10 -25 19
-17 21 6 3 12 12 12 21 0 15 -2 15 -10 2 -9 -13 -14 -7 -11 13 0 4 -6 7 -14 7
-8 0 -15 7 -15 15 0 8 -4 15 -10 15 -5 0 -7 7 -3 16 5 13 7 13 14 2 6 -9 9 -5
9 14 0 30 -43 83 -59 73 -6 -3 -11 -1 -11 4 0 6 4 11 8 11 4 0 8 11 7 25 0 29
-12 32 -37 10 -10 -8 -18 -10 -18 -5 0 6 7 13 16 17 8 3 13 12 10 20 -3 8 -2
12 3 9 5 -3 12 1 15 10 9 23 8 23 -14 19 -11 -2 -20 0 -20 6 0 5 5 9 11 9 6 0
9 6 6 13 -2 6 -9 11 -15 10 -13 -3 -85 145 -77 158 4 5 2 9 -2 9 -5 0 -14 18
-20 41 -8 29 -8 38 0 30 6 -6 18 -11 28 -11 12 0 15 6 11 26 -4 20 -1 25 9 22
12 -4 48 15 134 70 11 6 26 15 34 19 8 3 32 24 53 45 22 22 48 38 61 38 13 0
28 5 35 12 9 9 12 9 12 -1 0 -7 5 -9 10 -6 16 10 12 -17 -6 -36 -15 -17 -14
-19 12 -25 16 -4 35 -13 42 -21 16 -15 32 -17 32 -3 0 6 -15 20 -32 31 -18 12
-26 19 -17 16 9 -3 21 -1 27 5 7 7 19 6 38 -4 23 -10 33 -26 49 -80 11 -38 26
-68 33 -68 6 0 12 -5 12 -12 0 -6 7 -3 15 8 8 11 15 14 15 7 0 -15 30 -18 30
-4 0 5 7 12 16 15 12 4 14 1 9 -14 -4 -14 -2 -18 7 -15 16 6 114 -85 155 -146
44 -64 82 -162 89 -233 4 -33 15 -85 25 -115 10 -29 17 -57 14 -61 -3 -4 2
-13 10 -20 9 -7 13 -20 10 -29 -5 -19 11 -49 21 -38 9 9 8 125 -2 182 -3 22
-17 60 -29 84 -13 24 -21 49 -18 57 3 8 0 14 -6 14 -6 0 -11 10 -11 22 0 21 0
21 20 -2 11 -13 20 -27 20 -32 0 -19 2 -24 17 -40 17 -19 57 -125 78 -208 11
-47 13 473 14 3614 l1 3669 -2982 -7 c-1641 -3 -3017 -8 -3059 -12 -50 -4 -79
-2 -84 5 -7 13 -22 14 -27 2z m1378 -1125 c12 -12 9 -16 -19 -26 -18 -7 -26
-14 -19 -17 7 -3 42 7 78 21 47 19 70 24 82 16 12 -6 13 -9 4 -10 -8 0 -28 -6
-45 -14 -18 -8 -41 -16 -51 -18 -27 -4 -29 -37 -3 -49 l22 -10 -22 5 c-20 3
-39 -16 -35 -36 1 -5 -8 -8 -20 -8 -19 0 -20 -2 -8 -10 12 -8 12 -10 -5 -10
-11 -1 -36 -10 -55 -21 -32 -18 -26 -19 15 -3 8 3 15 1 15 -5 0 -6 -7 -11 -15
-11 -9 0 -12 -6 -8 -17 3 -10 3 -15 -2 -11 -10 10 -37 -11 -29 -23 3 -5 -1 -6
-9 -3 -8 3 -17 -2 -20 -10 -7 -18 -81 -66 -102 -66 -8 0 -15 -4 -15 -8 0 -5
-9 -18 -21 -31 -17 -18 -18 -25 -9 -36 10 -12 10 -15 0 -15 -8 0 -11 -3 -7 -6
5 -5 56 25 177 106 49 32 55 34 35 9 -11 -13 -13 -19 -5 -12 8 6 74 40 145 76
121 61 205 88 205 66 0 -5 -5 -9 -11 -9 -6 0 -27 -13 -46 -30 -18 -16 -38 -30
-43 -30 -6 0 -10 -7 -10 -15 0 -8 -12 -18 -26 -21 l-27 -7 24 -18 c13 -10 38
-19 56 -19 25 0 31 -4 27 -15 -4 -8 -12 -15 -20 -15 -7 0 -17 -7 -22 -15 -4
-9 -21 -20 -38 -24 l-29 -9 30 -2 c29 -1 29 -2 8 -12 -13 -6 -23 -15 -23 -20
0 -4 -6 -8 -13 -8 -8 0 -24 -11 -38 -26 -17 -18 -19 -23 -6 -18 9 3 17 10 17
14 0 5 9 7 20 5 11 -2 50 5 87 16 82 23 89 23 69 4 -8 -8 -17 -15 -21 -15 -4
0 -13 -7 -21 -15 -9 -8 -24 -15 -35 -15 -10 0 -19 -5 -19 -11 0 -6 -8 -8 -19
-4 -11 3 -22 2 -25 -3 -3 -5 -17 -7 -31 -4 -26 4 -145 -45 -145 -60 0 -4 -6
-8 -12 -8 -7 0 -33 -16 -57 -35 -24 -19 -47 -32 -52 -29 -5 3 -9 -2 -9 -11 0
-9 -4 -14 -9 -11 -11 7 -67 -56 -63 -72 4 -16 -20 -11 -35 8 -9 12 -10 9 -6
-13 3 -16 1 -27 -6 -27 -5 0 -8 7 -4 16 5 14 2 14 -23 -2 -16 -10 -35 -24 -42
-31 -7 -7 -17 -13 -21 -13 -4 0 -12 -12 -18 -27 -11 -28 -11 -28 -6 5 5 26 2
32 -13 32 -16 0 -17 2 -4 10 12 8 9 10 -12 10 -16 0 -28 -4 -28 -10 0 -5 -9
-10 -20 -10 -39 0 -30 14 64 98 27 24 46 45 43 48 -6 7 -68 -35 -80 -53 -4 -7
-15 -13 -22 -13 -8 0 -15 -4 -15 -8 0 -5 -17 -16 -37 -25 -38 -17 -96 -65
-123 -102 -20 -27 -104 -95 -118 -95 -6 0 -19 -11 -28 -25 -9 -14 -20 -23 -24
-20 -4 3 -15 -7 -24 -20 -9 -14 -30 -38 -46 -54 -17 -15 -30 -32 -30 -36 0 -4
-15 -22 -32 -41 -54 -56 -59 -63 -105 -153 -24 -47 -41 -75 -37 -62 5 18 3 22
-7 17 -8 -4 -6 -1 4 7 18 15 18 16 0 27 -16 10 -16 11 5 6 23 -4 31 4 36 38 1
8 5 19 9 22 4 4 7 12 7 18 0 6 -5 3 -11 -6 -5 -10 -20 -23 -32 -30 -21 -11
-21 -10 -7 8 8 10 17 21 20 24 37 34 163 268 156 287 -3 8 -1 11 4 8 6 -3 10
1 10 9 0 8 6 21 14 28 7 8 22 29 32 47 30 53 38 66 52 81 14 16 60 79 127 176
22 31 45 62 50 68 6 6 32 40 59 76 58 75 107 133 121 140 5 3 25 20 43 38 19
17 38 32 43 32 5 0 9 6 9 14 0 7 9 16 20 19 11 3 20 12 20 22 0 10 7 15 18 13
11 -2 17 3 16 14 -1 10 2 15 7 12 5 -3 9 0 9 6 0 6 4 9 9 5 5 -3 50 24 101 59
50 36 104 67 120 71 16 4 32 11 35 16 8 12 14 11 31 -5z m589 -176 c13 -6 15
-9 5 -9 -8 0 -22 4 -30 9 -18 12 -2 12 25 0z m-628 -6 c-3 -3 -12 -4 -19 -1
-8 3 -5 6 6 6 11 1 17 -2 13 -5z m563 -24 c0 -5 -7 -7 -15 -4 -8 4 -15 1 -15
-5 0 -6 -10 -11 -22 -11 -17 0 -19 -3 -10 -9 11 -7 10 -9 -3 -14 -9 -4 -14 -3
-10 2 3 5 -1 11 -7 14 -7 2 3 11 22 20 41 18 60 21 60 7z m-750 -165 c0 -1 -6
-7 -13 -13 -10 -8 -13 -6 -14 8 -1 13 3 17 13 13 8 -3 14 -6 14 -8z m-40 -29
c0 -3 -4 -8 -10 -11 -5 -3 -10 -1 -10 4 0 6 5 11 10 11 6 0 10 -2 10 -4z m735
-136 c-3 -5 -12 -10 -18 -10 -7 0 -6 4 3 10 19 12 23 12 15 0z m1220 -90 c3
-5 -3 -10 -15 -10 -12 0 -18 5 -15 10 3 6 10 10 15 10 5 0 12 -4 15 -10z m-3
-45 c14 4 29 2 32 -4 4 -6 -9 -13 -31 -16 -21 -4 -46 -9 -57 -12 -12 -3 -16
-1 -12 6 4 6 14 11 21 11 9 0 12 6 9 18 -4 12 -3 13 4 4 5 -8 18 -11 34 -7z
m-2276 -173 c-17 -16 -18 -16 -5 5 7 12 15 20 18 17 3 -2 -3 -12 -13 -22z
m116 6 c-7 -7 -12 -8 -12 -2 0 14 12 26 19 19 2 -3 -1 -11 -7 -17z m-72 2 c0
-5 -5 -10 -11 -10 -5 0 -7 5 -4 10 3 6 8 10 11 10 2 0 4 -4 4 -10z m230 -15
c0 -2 -10 -10 -22 -16 -21 -11 -22 -11 -9 4 13 16 31 23 31 12z m205 -60 c-17
-13 -39 -33 -50 -43 -28 -25 -74 -47 -82 -38 -4 4 3 9 15 13 12 3 22 9 22 14
0 5 7 9 15 9 8 0 15 7 15 16 0 8 3 13 8 10 4 -2 23 8 42 24 19 16 37 26 40 24
2 -3 -9 -16 -25 -29z m45 -13 c0 -5 -11 -14 -25 -20 -28 -13 -44 2 -18 17 22
13 43 14 43 3z m-979 -185 c-10 -9 -11 -8 -5 6 3 10 9 15 12 12 3 -3 0 -11 -7
-18z m3414 -78 c28 -84 86 -207 101 -213 10 -4 14 3 14 22 1 26 1 26 20 -10
11 -20 24 -40 30 -43 5 -3 10 -15 10 -26 0 -11 4 -18 9 -15 7 5 15 -69 11
-114 0 -8 -1 -34 -1 -57 0 -32 -4 -40 -15 -36 -10 3 -14 -2 -14 -18 0 -20 -2
-21 -11 -9 -8 11 -9 8 -4 -13 3 -16 2 -26 -2 -24 -10 6 -11 -106 -1 -113 3 -3
2 -26 -2 -51 -5 -26 -11 -80 -13 -120 -2 -41 -7 -81 -10 -89 -2 -8 -15 -55
-27 -105 -31 -127 -31 -128 -40 -119 -5 5 -4 32 2 59 6 28 12 66 14 85 1 19 3
35 4 35 1 0 4 14 6 30 8 53 24 139 30 168 4 18 2 27 -6 27 -7 0 -10 -7 -6 -15
3 -8 2 -15 -2 -15 -8 0 -44 -68 -39 -73 3 -3 -45 -69 -48 -65 -2 2 3 26 10 55
8 29 12 73 11 98 -1 26 1 40 5 33 5 -8 8 -2 8 17 -3 98 5 245 13 245 5 0 6 6
1 13 -11 18 -13 40 -4 52 4 5 6 24 5 40 -6 65 -5 126 2 137 4 7 3 8 -4 4 -7
-4 -12 -17 -13 -29 -1 -12 -7 14 -15 59 -7 44 -27 117 -44 163 -16 45 -30 94
-30 109 l0 27 14 -26 c7 -15 22 -51 31 -80z m-3425 51 c0 -5 -5 -10 -11 -10
-5 0 -7 5 -4 10 3 6 8 10 11 10 2 0 4 -4 4 -10z m-20 -29 c0 -5 -9 -19 -21
-32 l-20 -24 17 33 c19 33 24 38 24 23z m-99 -314 c-10 -9 -11 -8 -5 6 3 10 9
15 12 12 3 -3 0 -11 -7 -18z m913 -43 c3 -8 2 -12 -4 -9 -6 3 -10 10 -10 16 0
14 7 11 14 -7z m36 -4 c-8 -5 -17 -7 -19 -4 -3 3 1 9 9 14 8 5 17 7 19 4 3 -3
-1 -9 -9 -14z m-1023 -82 c-2 -7 0 -24 5 -37 7 -20 6 -22 -5 -13 -16 14 -15
18 -20 -97 -3 -53 -9 -86 -17 -91 -8 -5 -11 -20 -8 -38 2 -17 1 -29 -4 -26 -9
6 -24 -54 -27 -106 -1 -12 -3 -12 -10 -2 -6 10 -10 7 -15 -14 -5 -18 -3 -30 6
-36 8 -5 9 -11 3 -15 -5 -5 -11 -19 -12 -33 -1 -14 -4 -38 -5 -55 -1 -16 1
-41 5 -55 6 -17 5 -20 -1 -11 -8 11 -11 9 -17 -8 -14 -44 -13 -90 2 -95 8 -3
12 -14 10 -23 -14 -51 -16 -73 -8 -73 5 0 12 16 16 36 14 76 14 22 0 -97 -18
-148 -17 -139 -6 -139 5 0 12 20 15 45 4 25 11 45 15 45 7 0 -4 -107 -14 -141
-3 -9 -1 -27 4 -41 6 -15 5 -31 -1 -42 -6 -12 -6 -22 2 -31 7 -8 10 -24 7 -35
-3 -11 0 -20 6 -21 9 0 9 -2 1 -5 -7 -3 -10 -21 -7 -47 3 -23 0 -61 -5 -84 -5
-24 -6 -43 -1 -43 5 0 4 -12 -2 -27 -21 -57 -33 -210 -19 -262 10 -36 -6 -74
-20 -51 -4 6 -6 -5 -6 -23 1 -23 5 -33 14 -30 8 4 12 -6 12 -32 0 -22 -4 -34
-10 -30 -11 7 -10 2 5 -67 3 -16 12 -28 19 -28 13 0 22 -64 27 -195 4 -96 -25
-276 -44 -272 -5 1 -14 -9 -18 -23 -5 -17 -7 -19 -8 -7 -1 10 -6 15 -12 12 -6
-4 -9 -19 -8 -33 2 -15 -1 -37 -5 -50 -7 -22 -8 -22 -22 -5 -7 10 -13 25 -13
33 0 10 3 8 9 -5 5 -13 7 -4 5 30 -2 28 -6 58 -10 68 -4 9 -4 68 -1 130 12
204 14 322 6 302 -4 -11 -6 -31 -3 -45 2 -14 -5 -88 -15 -165 -10 -77 -18
-163 -18 -191 1 -45 -1 -50 -15 -41 -9 6 -14 18 -11 29 2 10 -1 18 -7 18 -6 0
-11 5 -11 11 0 5 5 7 11 3 9 -5 10 4 5 31 -4 22 -3 40 2 44 6 3 11 24 13 46 1
22 6 45 10 50 4 6 10 39 13 74 4 35 9 67 12 73 3 5 1 15 -5 22 -7 8 -7 23 -2
43 9 33 4 80 -10 89 -9 5 -13 -15 -9 -49 1 -10 -4 -34 -11 -55 -7 -20 -12 -48
-11 -61 1 -13 -3 -30 -9 -37 -6 -7 -8 -17 -5 -22 3 -5 -1 -34 -8 -63 -8 -30
-17 -81 -21 -114 -4 -33 -12 -66 -18 -74 -10 -12 -9 -13 2 -7 10 7 12 4 7 -12
-7 -20 -27 -126 -28 -149 -1 -7 -5 -10 -9 -7 -4 2 -5 46 -2 97 3 50 6 100 6
110 1 9 5 17 9 17 4 0 7 8 7 18 -1 25 10 122 17 154 4 21 2 26 -11 24 -17 -2
-35 -24 -34 -41 0 -5 6 1 15 15 15 25 15 25 8 -10 -3 -19 -11 -41 -16 -47 -7
-9 -7 -13 2 -13 8 0 9 -6 5 -17 -4 -10 -8 -25 -9 -33 -9 -71 -51 -239 -56
-224 -6 16 -7 15 -13 -7 -4 -13 -7 -38 -7 -55 0 -33 -23 -88 -32 -78 -4 3 -11
-11 -18 -31 -7 -20 -14 -34 -17 -31 -3 3 -1 18 5 35 8 23 7 32 -3 41 -10 8
-15 4 -24 -21 -6 -18 -13 -30 -16 -27 -3 2 6 37 20 77 14 43 19 69 12 63 -10
-8 -13 -5 -15 15 -1 15 -5 29 -8 32 -7 8 -23 -19 -31 -52 -3 -15 -9 -30 -14
-33 -5 -3 -7 1 -4 8 3 7 -4 19 -16 26 -17 11 -20 11 -13 0 15 -23 13 -67 -2
-61 -8 3 -14 -1 -14 -8 0 -8 -7 -23 -16 -34 -14 -19 -15 -18 -9 15 3 19 11 40
17 47 6 8 9 16 6 18 -3 3 -21 -21 -42 -52 -24 -39 -34 -49 -30 -32 3 15 1 30
-5 34 -6 3 -8 11 -5 17 3 5 8 33 10 61 l4 50 -19 -37 c-36 -70 -42 -96 -26
-113 18 -17 19 -29 3 -39 -7 -4 -8 -3 -4 5 4 6 2 19 -5 27 -10 12 -14 12 -21
2 -7 -9 -8 -7 -4 7 3 11 8 34 11 50 l6 30 -20 -24 c-19 -21 -21 -21 -21 -5 -1
18 -1 18 -11 1 -5 -9 -7 -22 -3 -29 4 -6 3 -8 -3 -5 -5 3 -15 -11 -23 -31 -7
-20 -21 -48 -31 -61 -23 -29 -24 -23 -4 15 18 35 19 56 2 74 -10 12 -9 12 4 2
14 -10 19 -7 32 20 11 22 12 35 5 39 -7 4 -7 9 1 13 6 4 8 12 5 18 -4 6 -2 8
4 4 6 -3 13 -2 17 4 3 5 1 10 -5 10 -7 0 -5 11 4 29 9 16 13 31 9 34 -3 3 4
17 15 32 12 15 18 34 15 46 -4 13 -1 19 8 17 10 -2 13 5 11 22 -2 21 -1 22 8
10 10 -13 11 -12 6 4 -6 18 13 87 35 129 7 13 6 24 -3 35 -11 15 -11 15 3 4
14 -11 18 -9 24 15 3 15 16 48 28 73 11 25 24 63 28 85 l6 40 2 -35 1 -35 16
30 c8 16 16 42 17 57 1 15 7 28 13 28 17 0 24 24 19 65 -3 23 -1 34 5 30 5 -3
10 -1 10 6 0 7 3 10 6 7 3 -4 1 -16 -6 -27 -6 -12 -7 -21 -1 -21 11 0 25 30
22 48 -1 6 2 12 8 12 9 0 51 120 51 149 1 14 3 13 14 -2 13 -16 14 -15 11 18
-2 23 5 55 21 88 13 29 24 48 24 42 1 -23 20 22 20 48 0 15 4 27 9 27 5 0 7 9
4 20 -3 11 0 26 6 34 6 7 13 26 15 42 2 16 11 60 20 97 9 38 16 84 16 103 0
21 4 33 10 29 6 -3 10 1 10 9 0 9 -4 16 -10 16 -12 0 -25 -47 -21 -74 1 -10
-2 -28 -7 -40 -6 -12 -13 -38 -17 -58 -3 -21 -10 -38 -15 -38 -5 0 -6 -7 -3
-17 5 -11 3 -14 -6 -8 -10 5 -11 2 -7 -13 4 -13 1 -22 -9 -26 -13 -5 -15 -1
-10 17 4 12 14 33 22 46 9 14 13 35 9 52 -4 22 -1 32 14 41 11 7 20 19 20 27
0 11 -5 10 -20 -4 -20 -18 -29 -8 -11 10 14 14 71 193 71 221 0 13 -4 24 -10
24 -19 0 -10 18 11 23 12 3 18 10 14 16 -3 6 -11 9 -16 6 -5 -4 -9 -1 -9 5 0
6 7 13 15 16 10 4 12 11 7 18 -13 17 -12 56 1 53 6 -1 12 13 13 35 1 21 6 44
12 51 6 7 11 22 11 32 1 41 10 92 25 134 17 48 21 74 7 53 -7 -11 -9 -10 -15
3 -3 9 1 23 9 31 8 9 15 21 15 29 0 7 7 26 15 41 9 18 15 23 15 12 0 -9 -4
-20 -10 -23 -5 -3 -10 -14 -10 -23 0 -11 6 -6 15 12 9 16 13 36 10 46 -3 9 6
38 19 66 13 27 34 81 46 119 26 82 51 145 57 145 3 0 3 -6 0 -12z m43 -22 c0
-3 -4 -8 -10 -11 -5 -3 -10 -1 -10 4 0 6 5 11 10 11 6 0 10 -2 10 -4z m-95
-43 c-23 -64 -55 -129 -55 -110 0 9 4 25 10 35 5 9 18 38 29 65 24 56 34 63
16 10z m3875 -65 c-1 -26 -3 -30 -10 -16 -6 9 -7 23 -4 32 9 25 14 19 14 -16z
m-850 2 c0 -5 -2 -10 -4 -10 -3 0 -8 5 -11 10 -3 6 -1 10 4 10 6 0 11 -4 11
-10z m-2978 -62 c-8 -8 -9 -4 -5 13 4 13 8 18 11 10 2 -7 -1 -18 -6 -23z
m3785 -40 c-3 -8 -6 -5 -6 6 -1 11 2 17 5 13 3 -3 4 -12 1 -19z m-3916 -45
c-12 -20 -14 -14 -5 12 4 9 9 14 11 11 3 -2 0 -13 -6 -23z m86 -65 c-3 -8 -6
-5 -6 6 -1 11 2 17 5 13 3 -3 4 -12 1 -19z m800 -110 c-3 -7 -5 -2 -5 12 0 14
2 19 5 13 2 -7 2 -19 0 -25z m-944 -75 c-8 -32 -19 -62 -24 -67 -12 -13 -12
-3 0 26 6 13 12 40 16 61 3 20 10 37 15 37 4 0 1 -26 -7 -57z m3362 37 c3 -6
-1 -7 -9 -4 -18 7 -21 14 -7 14 6 0 13 -4 16 -10z m-3400 -66 c-2 -20 -7 -39
-10 -42 -3 -3 -3 10 -1 29 5 49 6 49 11 49 3 0 3 -16 0 -36z m182 4 c-3 -8 -6
-5 -6 6 -1 11 2 17 5 13 3 -3 4 -12 1 -19z m-237 5 c0 -5 -8 -17 -17 -28 -14
-18 -15 -18 -9 -2 3 10 6 23 6 28 0 5 5 9 10 9 6 0 10 -3 10 -7z m630 -43 c7
-16 16 -30 21 -30 21 0 45 -87 28 -104 -10 -10 -77 -15 -103 -8 -27 7 -28 9
-12 24 9 9 16 30 16 47 0 17 4 31 9 31 4 0 6 11 3 25 -5 29 4 59 17 51 4 -3
14 -19 21 -36z m3409 -25 c0 -35 -4 -67 -9 -70 -11 -7 -13 76 -4 113 10 35 12
27 13 -43z m-3812 -12 c-3 -10 -5 -4 -5 12 0 17 2 24 5 18 2 -7 2 -21 0 -30z
m-402 -75 c-50 -153 -82 -200 -54 -79 12 54 72 187 77 172 2 -6 -9 -48 -23
-93z m4136 75 c-12 -20 -14 -14 -5 12 4 9 9 14 11 11 3 -2 0 -13 -6 -23z
m-3927 2 c-4 -8 -8 -15 -10 -15 -2 0 -4 7 -4 15 0 8 4 15 10 15 5 0 7 -7 4
-15z m23 -37 c-3 -7 -5 -2 -5 12 0 14 2 19 5 13 2 -7 2 -19 0 -25z m-43 -20
c-5 -7 -10 -24 -12 -38 -2 -14 -22 -99 -44 -190 -23 -91 -41 -173 -42 -182 0
-9 -5 -14 -10 -11 -5 4 -7 -3 -4 -15 4 -12 2 -20 -3 -16 -8 5 -13 -13 -12 -45
1 -8 -2 -10 -8 -4 -6 6 1 38 15 81 15 44 24 91 23 121 -1 27 1 47 4 45 8 -4
35 86 31 104 -2 6 1 12 7 12 5 0 15 33 21 73 16 97 18 103 31 90 7 -7 8 -17 3
-25z m4006 -18 c26 0 21 -77 -17 -250 -16 -69 -17 -72 -24 -42 -7 34 5 251 18
312 7 34 7 34 11 8 2 -16 7 -28 12 -28z m-3849 17 c-10 -9 -11 -8 -5 6 3 10 9
15 12 12 3 -3 0 -11 -7 -18z m46 1 c-3 -8 -6 -5 -6 6 -1 11 2 17 5 13 3 -3 4
-12 1 -19z m3729 -4 c-4 -9 -9 -15 -11 -12 -3 3 -3 13 1 22 4 9 9 15 11 12 3
-3 3 -13 -1 -22z m-3896 -31 c0 -20 -3 -24 -11 -16 -7 7 -9 19 -6 27 10 24 17
19 17 -11z m4064 -19 c3 -9 6 -25 6 -36 0 -17 3 -18 15 -8 13 11 15 8 15 -21
0 -24 -3 -30 -9 -20 -6 10 -9 0 -9 -32 0 -25 -3 -56 -7 -69 -4 -15 -3 -18 3
-10 6 9 9 3 9 -18 0 -16 -4 -30 -9 -30 -4 0 -8 9 -8 19 0 11 -5 23 -11 27 -8
5 -9 -9 -5 -47 4 -31 3 -49 -1 -42 -6 8 -9 -1 -10 -25 0 -20 -7 -80 -15 -132
l-14 -95 -12 70 c-8 42 -10 88 -5 115 4 25 6 49 4 54 -1 5 2 30 8 55 6 25 12
73 15 106 11 136 24 181 40 139z m-163 -18 c6 3 7 -6 3 -23 -9 -35 -14 -42
-14 -17 0 16 -2 17 -10 4 -8 -13 -10 -13 -10 2 0 24 13 54 18 40 2 -7 8 -9 13
-6z m-46 -113 l-15 -48 5 40 c3 22 5 51 5 65 1 22 2 23 11 8 7 -12 5 -32 -6
-65z m32 15 c-3 -8 -6 -5 -6 6 -1 11 2 17 5 13 3 -3 4 -12 1 -19z m-4030 -20
c-3 -8 -6 -5 -6 6 -1 11 2 17 5 13 3 -3 4 -12 1 -19z m4240 -20 c-3 -8 -6 -5
-6 6 -1 11 2 17 5 13 3 -3 4 -12 1 -19z m-4255 -20 c-7 -7 -12 -8 -12 -2 0 14
12 26 19 19 2 -3 -1 -11 -7 -17z m4265 -30 c-3 -7 -5 -2 -5 12 0 14 2 19 5 13
2 -7 2 -19 0 -25z m-254 -88 c-7 -28 -13 -25 -13 6 0 14 4 23 9 20 5 -3 7 -15
4 -26z m64 8 c-3 -8 -6 -5 -6 6 -1 11 2 17 5 13 3 -3 4 -12 1 -19z m-776 -31
c-7 -7 -12 -5 -17 7 -4 11 -1 21 7 27 17 11 26 -18 10 -34z m-3217 -12 c3 -8
1 -15 -4 -15 -6 0 -10 7 -10 15 0 8 2 15 4 15 2 0 6 -7 10 -15z m3126 -45 c9
-17 8 -20 -9 -20 -19 0 -35 23 -24 34 11 11 22 6 33 -14z m767 -62 c-3 -7 -5
-2 -5 12 0 14 2 19 5 13 2 -7 2 -19 0 -25z m-4010 0 c-3 -8 -6 -5 -6 6 -1 11
2 17 5 13 3 -3 4 -12 1 -19z m3280 1 c26 -10 27 -12 11 -23 -23 -17 -23 -26 2
-26 12 0 20 -7 20 -16 0 -12 -6 -15 -24 -10 -36 9 -40 -18 -6 -42 15 -12 50
-27 77 -33 26 -7 53 -16 59 -20 6 -5 14 -6 17 -2 4 3 7 1 7 -5 0 -7 7 -12 15
-12 8 0 15 -3 15 -8 0 -4 14 -13 31 -21 16 -7 28 -19 26 -26 -3 -6 -1 -18 4
-26 7 -11 9 -10 9 4 0 11 5 15 11 11 6 -3 8 -15 6 -26 -4 -14 -2 -18 9 -14 8
3 14 1 14 -4 0 -6 7 -10 15 -10 19 0 19 -7 0 -26 -9 -10 -13 -24 -9 -40 4 -16
2 -24 -7 -24 -9 0 -10 -3 -4 -8 16 -11 36 -62 29 -73 -4 -6 -11 -6 -20 2 -8 6
-14 8 -14 4 0 -4 8 -14 18 -21 10 -9 13 -17 7 -21 -5 -5 -11 -15 -12 -23 -1
-8 -5 -28 -9 -44 -5 -19 -2 -31 7 -37 10 -7 11 -11 2 -17 -6 -4 -13 -23 -15
-42 -2 -27 -8 -36 -25 -38 -24 -4 -32 -22 -10 -22 6 0 4 -5 -6 -11 -19 -11
-21 -58 -2 -71 6 -5 4 -8 -5 -8 -8 0 -24 -7 -35 -16 -15 -11 -17 -17 -7 -23 9
-5 5 -16 -18 -39 -16 -18 -30 -36 -30 -42 0 -5 -4 -10 -9 -10 -5 0 -11 -10
-13 -22 -2 -13 -11 -22 -23 -23 -11 -1 -34 -5 -51 -9 -27 -6 -35 -3 -58 24
-14 17 -26 38 -26 46 0 8 18 32 40 54 23 23 38 45 35 51 -8 12 13 39 29 39 6
0 5 -4 -3 -9 -8 -5 -9 -11 -3 -15 15 -9 22 7 15 33 -3 13 -11 20 -19 17 -12
-5 -20 18 -15 47 0 4 -3 7 -9 7 -5 0 -10 5 -10 10 0 6 -9 19 -20 30 -12 12
-18 26 -14 32 4 7 3 8 -4 4 -7 -4 -12 -3 -12 3 0 5 -11 23 -25 39 -27 32 -45
102 -49 192 -2 30 -6 63 -10 73 -5 9 -5 24 -2 33 3 8 -2 32 -11 52 -9 20 -15
43 -14 50 1 8 -6 20 -16 28 -15 11 -16 15 -4 23 7 5 11 13 8 17 -3 5 1 18 8
28 11 14 26 18 60 18 48 -1 62 14 20 23 -14 3 -36 7 -50 10 -14 3 -25 1 -25
-4 0 -6 -16 -1 -35 10 -56 33 -44 45 55 52 25 2 53 4 62 5 9 1 29 -3 45 -9z
m708 -39 c-4 -12 -9 -19 -12 -17 -3 3 -2 15 2 27 4 12 9 19 12 17 3 -3 2 -15
-2 -27z m-3998 -22 c-3 -7 -5 -2 -5 12 0 14 2 19 5 13 2 -7 2 -19 0 -25z
m3940 -20 c-3 -7 -5 -2 -5 12 0 14 2 19 5 13 2 -7 2 -19 0 -25z m-806 9 c-6
-8 -8 -17 -4 -20 3 -4 3 -7 0 -7 -3 0 -11 9 -17 20 -9 17 -8 20 11 20 17 0 19
-3 10 -13z m856 -191 c-2 -185 -12 -198 -27 -36 -9 94 4 225 21 215 4 -3 6
-83 6 -179z m-60 52 c-2 -24 -4 -7 -4 37 0 44 2 63 4 43 2 -21 2 -57 0 -80z
m-3940 70 c-3 -7 -5 -2 -5 12 0 14 2 19 5 13 2 -7 2 -19 0 -25z m63 26 c0 -8
-19 -13 -24 -6 -3 5 1 9 9 9 8 0 15 -2 15 -3z m4080 -40 c0 -10 6 -14 15 -10
18 6 21 -24 4 -41 -6 -6 -8 -16 -5 -22 13 -20 25 -11 29 22 4 30 4 29 6 -8 1
-22 6 -59 10 -82 5 -25 5 -43 -1 -43 -5 0 -4 -9 2 -19 5 -11 10 -37 9 -58 l-1
-38 -9 30 c-6 17 -11 58 -11 92 -1 51 -4 60 -15 51 -8 -6 -11 -18 -8 -26 7
-20 -5 -82 -16 -82 -5 0 -9 26 -9 58 0 32 -3 61 -6 65 -10 9 -12 127 -3 127 5
0 9 -7 9 -16z m107 -161 c-2 -27 -3 -5 -3 47 0 52 1 74 3 48 2 -27 2 -69 0
-95z m-4270 95 c-3 -8 -6 -5 -6 6 -1 11 2 17 5 13 3 -3 4 -12 1 -19z m4067 7
c3 -8 1 -15 -4 -15 -6 0 -10 7 -10 15 0 8 2 15 4 15 2 0 6 -7 10 -15z m-3944
-70 c0 -5 -5 -3 -10 5 -5 8 -10 20 -10 25 0 6 5 3 10 -5 5 -8 10 -19 10 -25z
m758 6 c7 -46 -6 -69 -36 -68 -31 2 -32 12 -8 70 13 33 40 32 44 -2z m3207
-23 c0 -48 2 -53 24 -56 19 -3 22 0 18 13 -4 10 -3 14 4 10 5 -4 7 -16 4 -26
-4 -11 -2 -26 4 -33 9 -10 8 -15 -4 -20 -16 -6 -19 -53 -5 -96 7 -21 8 -22 10
-5 1 11 1 36 1 55 -1 30 0 32 10 16 7 -11 9 -34 5 -60 -4 -22 -8 -67 -9 -98
-1 -32 -5 -58 -9 -58 -9 0 -48 74 -48 90 0 6 5 8 10 5 6 -4 10 5 8 22 -1 16 1
34 5 40 4 6 3 15 -3 18 -6 4 -8 15 -5 26 4 10 2 19 -4 19 -6 0 -10 10 -8 21 1
12 -4 24 -12 27 -11 4 -13 -8 -9 -56 3 -51 2 -59 -11 -54 -26 10 -45 33 -34
40 13 9 25 91 23 160 -1 44 2 52 17 52 16 0 19 -8 18 -52z m-4094 -19 c-6 -24
-9 -28 -10 -12 -1 24 9 56 16 50 2 -3 0 -20 -6 -38z m3989 -33 c0 -54 -11 -39
-15 19 -2 30 0 43 6 34 5 -8 9 -32 9 -53z m-3139 -59 c-8 -8 -11 -8 -11 2 0 7
-4 9 -10 6 -5 -3 -10 1 -10 10 0 11 5 15 15 11 8 -3 16 0 16 7 1 7 3 4 6 -7 3
-10 0 -23 -6 -29z m-90 10 c-10 -9 -11 -8 -5 6 3 10 9 15 12 12 3 -3 0 -11 -7
-18z m-375 -74 c-10 -10 -19 5 -10 18 6 11 8 11 12 0 2 -7 1 -15 -2 -18z
m3618 -9 c3 -8 2 -12 -4 -9 -6 3 -10 10 -10 16 0 14 7 11 14 -7z m-3617 -26
c-3 -8 -6 -5 -6 6 -1 11 2 17 5 13 3 -3 4 -12 1 -19z m3650 -15 c-3 -10 -5 -4
-5 12 0 17 2 24 5 18 2 -7 2 -21 0 -30z m45 -23 c3 -16 1 -30 -4 -30 -4 0 -8
6 -8 14 0 8 -3 21 -6 30 -3 9 -2 16 4 16 5 0 12 -13 14 -30z m-22 -43 c0 -10
-4 -15 -10 -12 -5 3 -10 18 -10 33 0 21 2 24 10 12 5 -8 10 -23 10 -33z
m-2875 13 c3 -5 1 -10 -4 -10 -6 0 -11 5 -11 10 0 6 2 10 4 10 3 0 8 -4 11
-10z m-574 -72 c-24 -59 -23 -55 -51 -188 -11 -52 -29 -133 -40 -180 -11 -47
-27 -122 -35 -167 -15 -80 -58 -233 -74 -263 -5 -9 -12 -31 -16 -49 -5 -25
-10 -30 -16 -20 -7 12 -9 12 -9 0 0 -8 -2 -12 -5 -9 -3 3 0 18 6 34 7 16 14
39 15 51 2 12 7 30 12 40 5 10 13 38 16 63 9 56 53 250 71 310 8 25 24 92 36
150 12 62 38 142 62 197 44 97 64 120 28 31z m-213 -10 c-1 -49 -2 -56 -8 -32
-6 29 -2 94 6 94 1 0 3 -28 2 -62z m553 30 c1 -7 2 -28 4 -46 1 -18 6 -67 11
-110 4 -42 7 -80 6 -84 -1 -4 2 -18 8 -32 6 -17 5 -26 -2 -28 -8 -3 -8 -10 1
-25 14 -28 14 -54 -1 -28 -10 18 -12 16 -24 -20 -10 -34 -12 -36 -13 -14 -1
15 -7 39 -15 53 -13 26 -14 23 -20 -51 -9 -111 -17 -153 -26 -153 -5 0 -10 10
-12 23 -2 15 -9 21 -20 19 -15 -2 -18 6 -19 55 0 42 -3 52 -9 38 -8 -20 -9
-20 -9 1 -1 12 3 34 8 50 5 16 15 49 22 74 7 25 16 50 20 55 4 6 10 35 14 65
9 68 18 84 25 45 5 -23 8 -14 14 40 4 39 10 73 13 78 7 11 23 8 24 -5z m-43
-63 c-3 -3 -9 2 -12 12 -6 14 -5 15 5 6 7 -7 10 -15 7 -18z m3142 -25 c0 -5
-4 -10 -10 -10 -5 0 -10 5 -10 10 0 6 5 10 10 10 6 0 10 -4 10 -10z m-3650
-61 c0 -10 -4 -19 -10 -19 -5 0 -10 12 -10 26 0 14 4 23 10 19 6 -3 10 -15 10
-26z m3607 -136 c-3 -10 -5 -4 -5 12 0 17 2 24 5 18 2 -7 2 -21 0 -30z m-3750
5 c-3 -8 -6 -5 -6 6 -1 11 2 17 5 13 3 -3 4 -12 1 -19z m3813 -28 c0 -5 -2
-10 -4 -10 -3 0 -8 5 -11 10 -3 6 -1 10 4 10 6 0 11 -4 11 -10z m-73 -42 c-3
-8 -6 -5 -6 6 -1 11 2 17 5 13 3 -3 4 -12 1 -19z m83 3 c0 -12 -20 -36 -20
-24 0 6 -3 19 -6 27 -5 12 -2 15 10 10 9 -3 16 -9 16 -13z m-4334 -96 c-2 -25
-7 -49 -11 -53 -4 -4 -4 4 0 17 5 16 4 21 -4 17 -6 -4 -11 -3 -11 3 0 5 5 13
10 16 6 3 10 15 10 26 0 10 2 19 5 19 3 0 3 -20 1 -45z m4329 -13 c-9 -24 25
-25 45 -2 20 23 20 23 20 2 0 -15 -8 -24 -24 -28 -15 -3 -23 -11 -20 -19 3 -8
12 -11 20 -8 11 4 14 -2 12 -24 -1 -16 1 -34 6 -41 4 -7 3 -12 -2 -12 -5 0 -8
-16 -6 -35 7 -92 32 -134 56 -96 16 26 24 26 31 0 3 -12 0 -22 -8 -25 -7 -3
-16 -17 -20 -31 -3 -14 -17 -40 -29 -57 -29 -39 -60 -105 -53 -112 5 -5 -28
-61 -53 -91 -5 -7 -10 -15 -10 -18 0 -4 -15 -27 -32 -53 -18 -26 -34 -51 -34
-57 -1 -5 -2 -15 -3 -22 -1 -7 -8 -10 -18 -6 -13 5 -15 2 -10 -11 4 -9 3 -15
-2 -11 -9 5 -24 -32 -36 -92 -4 -18 -16 -44 -27 -58 -11 -14 -18 -28 -15 -31
3 -3 -2 -14 -11 -24 -32 -36 -43 -50 -36 -50 3 0 2 -6 -4 -12 -6 -7 -13 -32
-16 -55 -6 -36 -51 -173 -75 -228 -5 -11 -12 -33 -16 -49 -10 -49 -15 -23 -5
30 5 27 15 78 21 114 6 36 17 90 24 121 8 34 10 72 5 97 -4 23 -4 39 1 37 4
-3 10 21 14 52 4 32 13 81 21 110 18 66 17 73 -5 44 l-19 -25 5 27 c3 15 9 27
14 27 5 0 5 7 2 17 -4 10 -2 14 4 10 13 -8 50 91 59 155 7 49 53 145 68 140 9
-4 26 16 26 31 0 5 -6 5 -12 2 -7 -3 -3 2 10 11 12 9 22 25 22 35 0 11 5 19
11 19 6 0 9 6 7 12 -3 7 1 19 9 26 7 7 13 19 12 25 0 8 -2 8 -6 -1 -2 -6 -9
-10 -14 -7 -5 4 -19 -16 -31 -42 -13 -26 -26 -50 -29 -53 -4 -3 -20 -33 -38
-67 -28 -57 -38 -87 -60 -183 -5 -19 -13 -46 -19 -60 -11 -25 -11 -25 -11 6
-1 17 8 59 18 92 24 76 107 285 132 334 10 20 16 43 13 51 -3 8 2 17 10 20 9
4 16 13 16 20 0 19 30 17 30 -2 1 -13 2 -13 11 2 9 15 13 16 27 6 14 -11 15
-11 5 1 -7 8 -13 21 -13 30 1 12 2 12 11 -2 12 -22 29 -23 29 -3 0 8 -5 15
-11 15 -6 0 -9 9 -6 20 3 11 1 20 -5 20 -6 0 -8 6 -5 14 3 8 -1 17 -9 20 -21
8 -8 25 16 23 13 -1 18 -6 15 -15z m1032 -4 c-3 -8 -6 -5 -6 6 -1 11 2 17 5
13 3 -3 4 -12 1 -19z m-4896 -50 l-9 -33 -1 32 c-1 17 2 40 6 50 12 30 16 -9
4 -49z m-494 -20 c-3 -8 -6 -5 -6 6 -1 11 2 17 5 13 3 -3 4 -12 1 -19z m4309
-25 c-3 -4 -6 -1 -6 7 0 10 -3 10 -15 0 -18 -15 -20 1 -3 18 9 9 14 9 21 -4 5
-8 6 -18 3 -21z m-3816 -58 c0 -8 -2 -15 -4 -15 -2 0 -6 7 -10 15 -3 8 -1 15
4 15 6 0 10 -7 10 -15z m3660 -82 c-11 -17 -11 -17 -6 0 3 10 7 26 7 35 1 15
2 15 6 0 2 -10 -1 -25 -7 -35z m-1597 17 c-3 -11 -9 -20 -14 -20 -11 0 -11 3
-3 24 9 23 23 20 17 -4z m-2593 0 c0 -5 -5 -10 -11 -10 -5 0 -7 5 -4 10 3 6 8
10 11 10 2 0 4 -4 4 -10z m-27 -40 c-3 -12 -8 -19 -11 -16 -5 6 5 36 12 36 2
0 2 -9 -1 -20z m3657 -20 c0 -5 -10 -10 -22 -10 -19 0 -20 2 -8 10 19 13 30
13 30 0z m-3349 -53 c-10 -9 -11 -8 -5 6 3 10 9 15 12 12 3 -3 0 -11 -7 -18z
m182 -7 c-3 -11 -7 -20 -9 -20 -2 0 -4 9 -4 20 0 11 4 20 9 20 5 0 7 -9 4 -20z
m2567 -5 c0 -8 -4 -17 -10 -20 -6 -4 -10 5 -10 20 0 15 4 24 10 20 6 -3 10
-12 10 -20z m64 -1 c5 -14 -9 -54 -19 -54 -3 0 -5 16 -5 35 0 36 13 47 24 19z
m30 -14 c-6 -6 -10 -2 -11 12 -2 16 1 18 10 9 7 -7 8 -14 1 -21z m1693 10 c-1
-11 -5 -20 -9 -20 -10 0 -10 4 -2 24 8 22 13 20 11 -4z m-4027 -4 c0 -3 -4 -8
-10 -11 -5 -3 -10 -1 -10 4 0 6 5 11 10 11 6 0 10 -2 10 -4z m-393 -38 c-3 -8
-6 -5 -6 6 -1 11 2 17 5 13 3 -3 4 -12 1 -19z m4457 0 c-3 -12 -6 -41 -6 -64
1 -24 -2 -45 -6 -48 -5 -3 -8 -42 -7 -88 1 -79 -20 -174 -46 -202 -5 -6 -9
-21 -10 -35 0 -16 -3 -20 -6 -11 -3 8 -10 18 -16 21 -10 7 -10 22 -3 124 l5
60 -9 -51 c-9 -50 -68 -219 -69 -198 -1 6 8 40 19 75 14 42 17 66 10 73 -7 7
-10 2 -10 -14 l-1 -25 -20 25 c-12 14 -20 18 -19 10 1 -8 2 -24 1 -35 -1 -15
-3 -17 -10 -7 -6 10 -11 1 -18 -27 -6 -23 -7 -38 -2 -35 5 3 9 0 9 -6 0 -6 -7
-13 -15 -16 -8 -4 -13 -10 -10 -14 3 -5 1 -11 -4 -14 -5 -3 -12 2 -15 11 -4 9
-2 19 3 22 6 4 7 21 2 44 -10 41 -5 49 9 15 7 -18 8 -13 3 17 -3 22 -10 42
-14 43 -13 5 -11 32 2 32 6 0 8 9 4 23 -6 21 -5 21 8 -2 8 -13 12 -33 10 -45
-4 -17 -3 -18 6 -6 13 18 14 50 2 50 -12 0 -21 53 -11 65 5 6 11 24 13 40 3
17 4 7 3 -22 -2 -29 1 -50 6 -47 4 3 8 14 8 25 0 16 9 22 30 21 3 0 6 18 8 40
1 22 9 46 16 54 12 11 14 0 10 -76 -4 -108 11 -120 21 -17 12 131 15 144 35
188 11 24 20 38 20 31 0 -7 5 -10 11 -6 8 5 10 -1 7 -19 -3 -17 -1 -24 7 -20
7 2 15 17 19 34 3 16 10 29 16 29 7 0 9 -8 4 -22z m-4077 -10 c-3 -8 -6 -5 -6
6 -1 11 2 17 5 13 3 -3 4 -12 1 -19z m3713 -18 c-12 -16 -24 -30 -26 -30 -3 0
4 14 16 30 12 17 24 30 26 30 3 0 -4 -13 -16 -30z m-4437 -3 c3 -8 -1 -14 -8
-14 -7 0 -11 6 -8 14 3 7 6 13 8 13 2 0 5 -6 8 -13z m107 4 c0 -6 -4 -13 -10
-16 -5 -3 -10 1 -10 9 0 9 5 16 10 16 6 0 10 -4 10 -9z m537 -53 c-3 -8 -6 -5
-6 6 -1 11 2 17 5 13 3 -3 4 -12 1 -19z m2563 -208 c0 -5 -2 -10 -4 -10 -3 0
-8 5 -11 10 -3 6 -1 10 4 10 6 0 11 -4 11 -10z m1417 -102 c-3 -8 -6 -5 -6 6
-1 11 2 17 5 13 3 -3 4 -12 1 -19z m-256 -221 c-10 -9 -11 -8 -5 6 3 10 9 15
12 12 3 -3 0 -11 -7 -18z m6 -59 c-3 -7 -5 -2 -5 12 0 14 2 19 5 13 2 -7 2
-19 0 -25z m235 -22 c-9 -18 -10 -16 -10 17 1 30 3 35 11 22 6 -11 5 -25 -1
-39z m-26 -71 c-7 -18 -26 -20 -26 -2 0 18 24 41 28 27 2 -6 1 -17 -2 -25z
m-38 -45 c-14 -22 -24 -19 -15 5 4 8 11 15 17 15 6 0 6 -7 -2 -20z m-4721 -27
c-3 -10 -5 -4 -5 12 0 17 2 24 5 18 2 -7 2 -21 0 -30z m-126 -100 c-12 -20
-14 -14 -5 12 4 9 9 14 11 11 3 -2 0 -13 -6 -23z m5479 16 c0 -5 4 -8 9 -5 9
6 26 -22 23 -36 -1 -5 3 -8 8 -8 6 0 10 -7 10 -15 0 -8 5 -15 10 -15 6 0 10
-5 10 -11 0 -11 58 -140 81 -183 9 -16 8 -18 -6 -13 -12 5 -15 2 -12 -11 3 -9
8 -30 11 -47 6 -29 6 -29 -7 -7 -7 12 -17 19 -22 15 -5 -4 -3 1 5 11 14 18 13
19 -4 13 -13 -5 -17 -3 -13 7 4 10 1 13 -8 10 -8 -4 -24 11 -42 38 -15 24 -45
66 -65 95 -21 29 -34 54 -29 57 5 4 7 16 4 29 -5 19 -2 19 20 -8 l25 -30 -18
55 c-10 30 -16 58 -14 62 7 12 24 10 24 -3z m-5500 -3 c0 -3 -4 -8 -10 -11 -5
-3 -10 -1 -10 4 0 6 5 11 10 11 6 0 10 -2 10 -4z m1417 -18 c-3 -8 -6 -5 -6 6
-1 11 2 17 5 13 3 -3 4 -12 1 -19z m-1057 -10 c0 -13 -4 -30 -10 -38 -6 -10
-8 -3 -7 23 2 39 17 52 17 15z m-355 -50 c-6 -22 -6 -22 9 -4 16 20 16 20 16
-1 0 -11 -9 -30 -20 -43 l-20 -23 0 40 c0 36 6 53 17 53 3 0 2 -10 -2 -22z
m3451 -5 c-7 -7 -26 7 -26 19 0 6 6 6 15 -2 9 -7 13 -15 11 -17z m-2156 -30
c-11 -17 -11 -17 -6 0 3 10 6 24 7 30 0 9 2 9 5 0 3 -7 0 -20 -6 -30z m2977
15 c-3 -8 -6 -5 -6 6 -1 11 2 17 5 13 3 -3 4 -12 1 -19z m1190 -55 c52 -71 83
-132 114 -222 21 -60 25 -102 6 -61 -6 14 -14 27 -17 30 -3 3 -11 17 -19 32
-8 16 -16 26 -19 23 -2 -2 8 -27 22 -56 15 -28 25 -53 23 -55 -5 -5 -57 71
-57 83 0 5 -7 17 -16 28 -13 17 -16 18 -25 5 -8 -12 -9 -10 -4 8 5 16 3 22 -7
20 -8 -2 -13 6 -12 19 0 13 -7 24 -18 26 -18 5 -24 -4 -11 -16 9 -10 43 -109
43 -127 0 -16 -17 10 -44 68 -9 18 -20 31 -26 27 -5 -3 -7 0 -4 8 3 8 -4 38
-15 68 -27 69 -26 71 9 30 35 -40 38 -35 10 19 -17 33 -18 40 -5 40 8 0 22
-14 30 -31 25 -47 27 -30 5 29 -35 93 -29 94 37 5z m-4947 -57 c0 -11 5 -16
14 -13 10 4 15 -4 16 -29 8 -121 -7 -244 -30 -244 -5 0 -5 12 0 28 20 63 27
180 11 192 -4 3 -13 30 -20 60 -8 30 -16 62 -18 70 -2 8 3 2 11 -15 8 -16 15
-38 16 -49z m5588 57 c-10 -2 -26 -2 -35 0 -10 3 -2 5 17 5 19 0 27 -2 18 -5z
m-4578 -7 c0 -3 -4 -8 -10 -11 -5 -3 -10 -1 -10 4 0 6 5 11 10 11 6 0 10 -2
10 -4z m4663 -3 c-7 -2 -21 -2 -30 0 -10 3 -4 5 12 5 17 0 24 -2 18 -5z m94
-9 c-3 -3 -12 -4 -19 -1 -8 3 -5 6 6 6 11 1 17 -2 13 -5z m-943 -91 c39 -78
51 -113 39 -113 -13 0 -49 70 -66 128 -9 28 -14 52 -12 52 3 0 20 -30 39 -67z
m26 12 c0 -5 -5 -3 -10 5 -5 8 -10 20 -10 25 0 6 5 3 10 -5 5 -8 10 -19 10
-25z m670 -5 c0 -5 -4 -10 -10 -10 -5 0 -10 5 -10 10 0 6 5 10 10 10 6 0 10
-4 10 -10z m50 -9 c0 -3 -4 -12 -9 -20 -7 -11 -11 -10 -20 7 -15 28 -14 31 9
25 11 -3 20 -8 20 -12z m-700 -34 c0 -5 -4 -5 -10 -2 -5 3 -10 14 -10 23 0 15
2 15 10 2 5 -8 10 -19 10 -23z m-126 -83 c3 -8 2 -12 -4 -9 -6 3 -10 10 -10
16 0 14 7 11 14 -7z m140 -20 c3 -8 2 -12 -4 -9 -6 3 -10 10 -10 16 0 14 7 11
14 -7z m-725 -37 c1 -5 -3 -5 -9 -2 -5 3 -10 0 -10 -8 0 -19 -40 -100 -47 -94
-3 3 8 37 23 76 21 50 31 65 36 53 4 -9 7 -21 7 -25z m445 -20 c8 -18 15 -26
15 -19 1 6 6 12 12 12 8 0 7 -5 -1 -15 -17 -21 -5 -31 17 -14 11 10 14 10 9 1
-4 -7 0 -26 8 -44 23 -45 19 -59 -5 -20 -12 17 -23 32 -25 32 -9 0 29 -65 42
-73 8 -4 14 -15 14 -23 0 -13 -2 -13 -12 -2 -31 33 -62 84 -61 100 1 9 -9 24
-23 33 -13 8 -24 21 -24 28 0 8 4 7 10 -3 11 -17 13 -10 4 14 -3 9 -10 13 -15
10 -5 -3 -6 2 -3 10 8 21 22 11 38 -27z m-74 7 c0 -8 5 -12 10 -9 6 3 10 2 10
-4 0 -5 6 -16 13 -23 46 -48 101 -168 76 -168 -5 0 -9 -5 -9 -11 0 -6 7 -8 16
-5 9 3 12 2 9 -4 -4 -6 7 -40 24 -77 39 -82 35 -93 -6 -15 -72 139 -86 163
-91 158 -2 -3 6 -29 20 -58 65 -137 78 -170 73 -179 -4 -5 6 -34 21 -64 15
-31 24 -58 21 -61 -3 -3 -8 4 -12 15 -3 12 -10 19 -15 16 -5 -3 -21 12 -36 35
-26 38 -44 51 -44 30 0 -5 5 -10 10 -10 6 0 10 -7 10 -16 0 -31 -25 -7 -45 44
-19 47 -46 90 -32 50 4 -10 2 -18 -4 -18 -7 0 -9 11 -7 25 3 13 2 23 -1 22 -3
-1 -8 3 -9 8 -2 6 -8 16 -14 23 -6 7 -16 36 -23 65 -7 28 -16 61 -21 72 -7 18
-6 19 10 6 16 -13 16 -12 5 12 -7 15 -15 27 -18 27 -3 0 -7 23 -8 50 0 28 2
50 6 50 14 0 40 -40 35 -54 -3 -8 -1 -17 5 -21 7 -4 9 1 5 12 -3 11 5 6 20
-12 l26 -30 -25 62 c-28 71 -29 73 -15 73 6 0 10 -7 10 -16z m962 -70 c-8 -14
-9 -13 -9 10 0 18 3 24 9 18 7 -7 7 -16 0 -28z m-5496 -20 c-4 -14 -9 -24 -12
-21 -3 2 -2 17 2 31 3 15 9 25 11 22 3 -3 2 -17 -1 -32z m4140 -11 c-10 -10
-19 5 -10 18 6 11 8 11 12 0 2 -7 1 -15 -2 -18z m1389 -21 c-3 -3 -11 0 -18 7
-9 10 -8 11 6 5 10 -3 15 -9 12 -12z m-5548 -34 c-3 -8 -6 -5 -6 6 -1 11 2 17
5 13 3 -3 4 -12 1 -19z m70 -10 c-3 -8 -6 -5 -6 6 -1 11 2 17 5 13 3 -3 4 -12
1 -19z m5133 8 c0 -8 -4 -18 -10 -21 -5 -3 -10 3 -10 14 0 12 5 21 10 21 6 0
10 -6 10 -14z m-1099 -29 c-10 -9 -11 -8 -5 6 3 10 9 15 12 12 3 -3 0 -11 -7
-18z m-4078 -17 c-3 -12 -8 -19 -11 -16 -5 6 5 36 12 36 2 0 2 -9 -1 -20z m28
-11 c-9 -22 -10 -22 -10 -3 -1 11 2 24 6 27 12 12 14 0 4 -24z m3886 11 c1
-11 -2 -20 -8 -20 -10 0 -12 23 -2 33 9 9 9 10 10 -13z m-3147 -5 c0 -10 -15
-17 -42 -22 -46 -7 -48 -7 -48 5 1 4 10 6 22 4 14 -3 18 0 13 9 -6 9 -2 11 13
7 12 -4 22 -2 22 3 0 5 5 9 10 9 6 0 10 -7 10 -15z m4410 -101 c-1 -60 0 -122
0 -138 1 -58 -21 -231 -30 -240 -6 -6 -10 -17 -10 -25 0 -14 1 -14 10 -1 8 11
10 7 8 -17 -1 -22 -6 -29 -12 -23 -13 13 -26 13 -26 -1 0 -5 5 -7 10 -4 6 3
10 -2 10 -12 0 -10 3 -29 5 -43 5 -22 4 -22 -4 -5 l-10 20 -2 -20 c-1 -11 -3
-31 -4 -45 -8 -79 -64 -285 -86 -319 -9 -14 -10 -14 -5 2 16 48 14 47 -12 -7
-20 -41 -31 -55 -37 -46 -7 11 -10 9 -16 -6 -7 -17 -8 -17 -8 -1 -1 10 4 27
10 39 6 11 8 22 5 25 -3 4 -15 -15 -26 -40 -11 -25 -25 -49 -30 -52 -13 -8
-13 1 1 27 35 65 57 150 53 207 -2 34 1 63 7 66 5 4 7 15 4 25 -3 10 -1 21 5
25 5 3 10 15 10 26 0 11 -4 18 -9 14 -6 -3 -9 16 -8 44 1 40 3 48 14 39 15
-12 18 -42 3 -33 -6 3 -7 -1 -4 -9 13 -33 24 -14 24 39 0 30 4 74 10 97 5 24
14 63 19 88 l9 45 1 -47 c0 -27 5 -48 10 -48 6 0 6 -12 0 -32 -12 -43 -12
-129 1 -108 26 45 30 256 7 330 -17 53 -28 160 -16 160 3 0 11 -16 19 -35 14
-36 23 -38 25 -7 8 85 18 141 26 136 5 -3 9 -14 9 -25 0 -12 4 -17 11 -13 6 3
8 17 5 29 -4 14 -1 25 7 28 6 2 13 3 14 2 2 -1 3 -51 3 -111z m-1027 58 c-6
-23 -23 -21 -23 4 0 8 5 12 10 9 6 -3 10 -1 10 6 0 7 2 10 5 8 2 -3 2 -15 -2
-27z m227 -21 c25 -25 27 -31 16 -46 -10 -14 -15 -15 -21 -5 -5 9 -4 11 3 6 7
-4 12 -1 12 6 0 14 -20 48 -20 34 0 -11 -30 14 -30 25 0 15 10 10 40 -20z
m-2200 15 c0 -3 -4 -8 -10 -11 -5 -3 -10 -1 -10 4 0 6 5 11 10 11 6 0 10 -2
10 -4z m2254 -21 c3 -8 1 -15 -4 -15 -6 0 -10 7 -10 15 0 8 2 15 4 15 2 0 6
-7 10 -15z m-4469 -15 c3 -5 1 -10 -4 -10 -6 0 -11 5 -11 10 0 6 2 10 4 10 3
0 8 -4 11 -10z m4192 -47 c-3 -10 -5 -4 -5 12 0 17 2 24 5 18 2 -7 2 -21 0
-30z m96 17 c3 -11 1 -18 -4 -14 -5 3 -9 12 -9 20 0 20 7 17 13 -6z m207 -45
c19 -24 38 -44 42 -45 10 0 42 -72 39 -87 -1 -8 5 -10 16 -6 15 6 16 5 3 -9
-13 -13 -19 -9 -57 41 -24 31 -50 64 -58 74 -18 21 -19 31 -2 21 7 -4 9 -3 4
2 -5 5 -14 9 -20 9 -7 1 -11 6 -9 13 1 7 -3 12 -9 12 -5 0 -7 5 -4 10 10 17
19 12 55 -35z m14 29 c3 -8 2 -12 -4 -9 -6 3 -10 10 -10 16 0 14 7 11 14 -7z
m-4539 -13 c3 -5 1 -12 -5 -16 -5 -3 -10 1 -10 9 0 18 6 21 15 7z m4560 -21
c3 -5 1 -10 -4 -10 -6 0 -11 5 -11 10 0 6 2 10 4 10 3 0 8 -4 11 -10z m-4265
-4 c0 -2 -8 -10 -17 -17 -16 -13 -17 -12 -4 4 13 16 21 21 21 13z m4531 -124
c5 -2 9 -8 9 -13 0 -19 -20 2 -55 57 -20 30 -33 59 -30 65 4 5 20 -17 37 -48
17 -32 34 -59 39 -61z m-4597 79 c3 -5 -3 -11 -15 -14 -16 -4 -18 -3 -8 9 13
16 16 17 23 5z m-44 -18 c0 -9 -3 -14 -6 -10 -4 3 -19 0 -35 -8 -15 -8 -34
-15 -41 -15 -7 1 7 12 32 25 55 29 50 28 50 8z m4468 -8 c-3 -3 -9 2 -12 12
-6 14 -5 15 5 6 7 -7 10 -15 7 -18z m-4573 -35 c-3 -5 -12 -10 -18 -10 -7 0
-6 4 3 10 19 12 23 12 15 0z m4082 -12 c-3 -8 -6 -5 -6 6 -1 11 2 17 5 13 3
-3 4 -12 1 -19z m-4367 -35 c-24 -21 -55 -48 -69 -60 -14 -13 -22 -23 -18 -23
9 0 68 31 77 40 3 3 19 11 35 19 17 7 38 17 47 22 11 5 20 4 24 -3 4 -7 3 -8
-4 -4 -7 4 -12 1 -12 -8 0 -21 8 -20 53 4 21 11 42 18 47 15 6 -4 10 -1 10 4
0 6 4 11 9 11 6 0 9 -9 8 -19 0 -11 -5 -17 -10 -14 -5 3 -19 1 -30 -5 -12 -6
-51 -25 -87 -41 -36 -16 -86 -43 -112 -58 -25 -15 -84 -50 -130 -77 -135 -79
-328 -200 -346 -216 -30 -28 -144 -100 -156 -99 -6 0 -1 5 12 11 12 6 22 15
22 21 0 5 7 15 17 22 9 7 13 17 9 24 -6 9 -12 9 -25 -3 -15 -14 -18 -14 -18
-1 0 8 6 15 13 15 13 0 25 23 29 53 1 15 -3 17 -26 12 -24 -6 -27 -4 -22 14 3
12 11 21 18 21 23 0 35 25 27 56 -5 16 -5 43 -1 59 6 29 7 29 9 5 2 -14 2 -34
1 -45 -4 -44 9 -49 41 -16 33 33 155 101 183 101 8 0 15 5 15 10 0 6 5 10 11
10 6 0 9 -7 5 -15 -6 -16 23 -21 40 -7 5 5 34 19 64 32 62 25 227 130 255 160
10 11 20 18 23 15 3 -2 -14 -22 -38 -42z m5307 0 c-3 -10 -5 -4 -5 12 0 17 2
24 5 18 2 -7 2 -21 0 -30z m-1027 -1 c0 -15 -2 -15 -10 -2 -13 20 -13 33 0 25
6 -3 10 -14 10 -23z m-4965 9 c3 -5 1 -12 -5 -16 -5 -3 -10 1 -10 9 0 18 6 21
15 7z m4992 -33 c-3 -8 -6 -5 -6 6 -1 11 2 17 5 13 3 -3 4 -12 1 -19z m990
-80 c-2 -18 -4 -6 -4 27 0 33 2 48 4 33 2 -15 2 -42 0 -60z m-5996 6 c-8 -26
-9 -25 -8 13 1 25 4 37 9 30 4 -8 3 -27 -1 -43z m338 12 c-9 -8 -10 -7 -5 7 3
10 7 24 7 30 1 7 3 4 6 -7 3 -10 -1 -23 -8 -30z m-231 -71 c-3 -3 -9 2 -12 12
-6 14 -5 15 5 6 7 -7 10 -15 7 -18z m5871 -41 c-2 -40 -5 -51 -11 -39 -9 15
-2 95 8 95 3 0 4 -25 3 -56z m-5955 -166 c-14 -26 -19 -29 -22 -15 -2 10 4 27
15 37 25 24 28 18 7 -22z m6939 -255 c6 17 47 -27 47 -51 0 -33 -11 -31 -51 6
-42 40 -51 59 -20 42 14 -7 21 -6 24 3z m-1253 -138 c13 8 22 -32 15 -65 -7
-32 -25 -41 -25 -12 0 14 -2 15 -10 2 -8 -12 -10 -12 -11 5 -1 11 0 33 1 49 1
18 -2 26 -9 21 -6 -3 -8 -11 -5 -17 4 -7 2 -8 -4 -4 -7 4 -12 14 -12 22 0 8 5
12 10 9 6 -3 10 -1 10 5 0 7 7 5 16 -4 8 -9 19 -14 24 -11z m781 -22 c13 -16
12 -17 -3 -4 -10 7 -18 15 -18 17 0 8 8 3 21 -13z m-631 -73 c0 -5 -5 -10 -11
-10 -5 0 -7 5 -4 10 3 6 8 10 11 10 2 0 4 -4 4 -10z m736 -42 c21 -29 44 -59
51 -66 15 -16 16 -31 3 -52 -7 -12 -11 -8 -16 17 -3 17 -14 40 -24 51 -10 10
-21 28 -24 40 -4 12 -11 22 -16 22 -5 0 -14 9 -20 20 -22 40 9 19 46 -32z
m-746 15 c0 -5 -7 -17 -15 -27 -15 -20 -20 -10 -9 18 6 16 24 22 24 9z m627
-35 c-3 -8 -6 -5 -6 6 -1 11 2 17 5 13 3 -3 4 -12 1 -19z m67 -14 c3 -8 2 -12
-4 -9 -6 3 -10 10 -10 16 0 14 7 11 14 -7z m-24 -14 c0 -5 -4 -10 -10 -10 -5
0 -10 5 -10 10 0 6 5 10 10 10 6 0 10 -4 10 -10z m21 -42 c11 -21 11 -22 -4
-9 -10 7 -17 17 -17 22 0 15 9 10 21 -13z m143 -24 c3 -8 2 -12 -4 -9 -6 3
-10 10 -10 16 0 14 7 11 14 -7z m-297 -22 c4 2 26 -14 48 -34 22 -20 51 -46
65 -58 14 -12 24 -27 22 -32 -2 -6 6 -17 18 -25 11 -8 20 -19 20 -25 0 -7 -7
-3 -15 8 -17 22 -20 12 -4 -17 8 -15 14 -18 24 -9 9 8 14 7 19 -5 3 -9 2 -13
-4 -10 -18 11 -10 -8 13 -33 24 -26 32 -73 10 -65 -16 6 -17 20 -1 25 9 3 8 9
-5 22 -9 10 -17 14 -17 10 0 -4 -12 11 -26 32 -14 21 -36 47 -47 56 -12 10
-17 18 -11 18 7 0 14 7 18 15 8 22 -7 18 -22 -6 -11 -17 -11 -24 1 -37 37 -44
25 -42 -21 3 -29 27 -50 55 -48 61 2 6 -3 11 -12 10 -9 0 -17 6 -17 14 0 8
-11 35 -24 60 -15 28 -18 40 -8 32 8 -7 19 -11 24 -10z m-63 -178 c5 -14 4
-15 -9 -4 -17 14 -19 20 -6 20 5 0 12 -7 15 -16z m44 -70 c-4 -3 -12 5 -18 18
-12 22 -12 22 6 6 10 -10 15 -20 12 -24z m-180 -10 c-4 -3 -12 5 -18 18 -12
22 -12 22 6 6 10 -10 15 -20 12 -24z m372 -9 c0 -5 -5 -3 -10 5 -5 8 -10 20
-10 25 0 6 5 3 10 -5 5 -8 10 -19 10 -25z m840 -85 c0 -11 -2 -20 -4 -20 -2 0
-6 9 -9 20 -3 11 -1 20 4 20 5 0 9 -9 9 -20z m-525 -760 c3 -5 1 -10 -4 -10
-6 0 -11 5 -11 10 0 6 2 10 4 10 3 0 8 -4 11 -10z"/>
<path d="M2890 9265 c-11 -13 -10 -14 4 -9 9 3 16 10 16 15 0 13 -6 11 -20 -6z"/>
<path d="M2450 9203 c-9 -2 -21 -12 -27 -22 -10 -16 -8 -17 13 -13 25 5 50 28
37 34 -4 3 -15 3 -23 1z"/>
<path d="M2364 9109 c0 -13 3 -15 13 -7 7 6 13 12 13 13 0 2 -6 5 -13 8 -7 3
-13 -3 -13 -14z"/>
<path d="M2470 9085 c-15 -19 -100 -77 -115 -79 -6 -1 -21 -9 -34 -18 -20 -14
-28 -15 -40 -5 -11 9 -13 9 -8 0 5 -7 -1 -21 -13 -33 -17 -17 -21 -18 -26 -5
-8 21 -24 9 -24 -19 0 -13 -11 -35 -25 -50 -36 -39 -1 -29 60 16 125 94 260
208 246 208 -4 0 -14 -7 -21 -15z"/>
<path d="M2247 8973 c-4 -3 -7 -11 -7 -17 0 -6 5 -5 12 2 6 6 9 14 7 17 -3 3
-9 2 -12 -2z"/>
<path d="M2338 8833 c7 -3 16 -2 19 1 4 3 -2 6 -13 5 -11 0 -14 -3 -6 -6z"/>
<path d="M5267 7733 c-3 -16 -1 -35 4 -43 6 -10 8 -2 9 28 0 48 -5 55 -13 15z"/>
<path d="M1437 7633 c-4 -3 -7 -11 -7 -17 0 -6 5 -5 12 2 6 6 9 14 7 17 -3 3
-9 2 -12 -2z"/>
<path d="M1381 7584 c0 -11 3 -14 6 -6 3 7 2 16 -1 19 -3 4 -6 -2 -5 -13z"/>
<path d="M1405 7522 c-7 -45 2 -74 16 -51 5 8 9 19 9 24 0 6 -5 3 -10 -5 -13
-20 -14 5 -1 29 5 9 6 23 1 30 -5 9 -10 0 -15 -27z"/>
<path d="M1382 7440 c0 -14 2 -19 5 -12 2 6 2 18 0 25 -3 6 -5 1 -5 -13z"/>
<path d="M1396 7217 c3 -10 9 -15 12 -12 3 3 0 11 -7 18 -10 9 -11 8 -5 -6z"/>
<path d="M1415 6939 c-4 -6 -5 -12 -2 -15 2 -3 7 2 10 11 7 17 1 20 -8 4z"/>
<path d="M1236 6345 c-3 -8 -1 -15 4 -15 6 0 10 7 10 15 0 8 -2 15 -4 15 -2 0
-6 -7 -10 -15z"/>
<path d="M1323 6338 c-4 -7 -8 -33 -9 -58 -1 -25 -6 -73 -11 -107 -5 -34 -6
-60 -1 -57 4 3 9 15 9 27 1 17 3 16 10 -8 6 -23 7 -17 4 23 -3 28 -1 52 3 52
4 0 7 27 7 61 1 42 5 63 15 69 13 8 12 10 -2 10 -9 0 -20 -6 -25 -12z"/>
<path d="M1350 6313 c0 -12 5 -25 10 -28 13 -8 13 15 0 35 -8 12 -10 11 -10
-7z"/>
<path d="M1226 6298 c-3 -13 -1 -27 4 -32 7 -7 10 1 10 22 0 37 -5 41 -14 10z"/>
<path d="M1206 6247 c3 -10 9 -15 12 -12 3 3 0 11 -7 18 -10 9 -11 8 -5 -6z"/>
<path d="M1196 6205 c-3 -9 -6 -26 -5 -38 1 -14 4 -9 9 13 9 37 7 52 -4 25z"/>
<path d="M1282 6080 c0 -14 2 -19 5 -12 2 6 2 18 0 25 -3 6 -5 1 -5 -13z"/>
<path d="M1262 6020 c-6 -10 -8 -21 -3 -24 5 -3 11 4 14 16 8 29 4 32 -11 8z"/>
<path d="M1425 6000 c-3 -5 -1 -10 4 -10 6 0 11 5 11 10 0 6 -2 10 -4 10 -3 0
-8 -4 -11 -10z"/>
<path d="M945 5970 c3 -5 8 -10 11 -10 2 0 4 5 4 10 0 6 -5 10 -11 10 -5 0 -7
-4 -4 -10z"/>
<path d="M1241 5954 c0 -11 3 -14 6 -6 3 7 2 16 -1 19 -3 4 -6 -2 -5 -13z"/>
<path d="M1410 5959 c0 -5 5 -7 10 -4 6 3 10 8 10 11 0 2 -4 4 -10 4 -5 0 -10
-5 -10 -11z"/>
<path d="M1443 5930 c0 -25 2 -35 4 -22 2 12 2 32 0 45 -2 12 -4 2 -4 -23z"/>
<path d="M1230 5921 c0 -5 -3 -18 -6 -28 -6 -16 -5 -16 9 2 19 23 21 35 7 35
-5 0 -10 -4 -10 -9z"/>
<path d="M914 5894 c-4 -10 -9 -22 -11 -26 -2 -5 0 -8 5 -8 10 0 24 41 17 48
-3 3 -8 -4 -11 -14z"/>
<path d="M1408 5876 c-3 -16 -1 -23 7 -19 7 2 11 13 8 24 -7 25 -10 24 -15 -5z"/>
<path d="M890 5829 c-6 -11 -10 -25 -8 -30 2 -5 8 4 15 21 13 34 9 40 -7 9z"/>
<path d="M1399 5789 c0 -24 -2 -63 -5 -86 -2 -24 0 -43 4 -43 10 0 10 0 12 93
1 37 -1 71 -4 74 -3 4 -6 -14 -7 -38z"/>
<path d="M1066 5663 c-6 -14 -5 -15 5 -6 7 7 10 15 7 18 -3 3 -9 -2 -12 -12z"/>
<path d="M1352 5600 c0 -14 2 -19 5 -12 2 6 2 18 0 25 -3 6 -5 1 -5 -13z"/>
<path d="M806 5484 c-10 -38 0 -41 12 -5 6 17 7 31 3 31 -5 0 -12 -12 -15 -26z"/>
<path d="M876 5485 c-9 -26 -7 -32 5 -12 6 10 9 21 6 23 -2 3 -7 -2 -11 -11z"/>
<path d="M1077 5443 c-3 -21 -8 -46 -13 -57 -5 -13 -3 -17 6 -14 7 2 14 25 17
56 5 60 -2 70 -10 15z"/>
<path d="M875 5429 c-9 -17 -15 -33 -13 -35 3 -2 12 12 21 31 21 43 13 47 -8
4z"/>
<path d="M4670 6449 c0 -5 5 -7 10 -4 6 3 10 8 10 11 0 2 -4 4 -10 4 -5 0 -10
-5 -10 -11z"/>
<path d="M4460 6080 c0 -5 5 -10 10 -10 6 0 10 5 10 10 0 6 -4 10 -10 10 -5 0
-10 -4 -10 -10z"/>
<path d="M5255 6570 c3 -5 8 -10 11 -10 2 0 4 5 4 10 0 6 -5 10 -11 10 -5 0
-7 -4 -4 -10z"/>
<path d="M4917 5124 c-11 -14 -16 -28 -12 -32 3 -3 11 0 16 8 9 12 9 11 4 -5
-4 -11 -9 -36 -11 -55 l-5 -35 15 32 c8 18 14 51 13 73 -1 22 -1 40 -2 40 0 0
-8 -12 -18 -26z"/>
<path d="M4886 5063 c-6 -14 -5 -15 5 -6 7 7 10 15 7 18 -3 3 -9 -2 -12 -12z"/>
<path d="M4907 4933 c-9 -20 -14 -39 -12 -42 3 -2 12 13 20 34 21 49 14 56 -8
8z"/>
<path d="M4859 4924 c-5 -15 -8 -29 -5 -31 2 -2 8 10 14 26 13 38 5 41 -9 5z"/>
<path d="M4856 4845 c-11 -19 -17 -37 -15 -39 2 -3 14 13 26 35 12 21 18 39
14 39 -3 0 -15 -16 -25 -35z"/>
<path d="M4826 4743 c-6 -14 -5 -15 5 -6 7 7 10 15 7 18 -3 3 -9 -2 -12 -12z"/>
<path d="M5516 5315 c-3 -8 -1 -15 4 -15 6 0 10 7 10 15 0 8 -2 15 -4 15 -2 0
-6 -7 -10 -15z"/>
<path d="M5506 5265 c-9 -26 -7 -32 5 -12 6 10 9 21 6 23 -2 3 -7 -2 -11 -11z"/>
<path d="M5501 5124 c0 -11 3 -14 6 -6 3 7 2 16 -1 19 -3 4 -6 -2 -5 -13z"/>
<path d="M5411 5078 c-1 -10 -7 -16 -13 -14 -7 1 -10 1 -5 -1 4 -3 7 -12 8
-21 0 -11 4 -9 10 7 5 13 8 29 5 35 -2 6 -5 3 -5 -6z"/>
<path d="M5580 3862 c0 -12 39 -60 40 -49 0 5 -9 20 -20 34 -11 14 -20 21 -20
15z"/>
<path d="M5550 3840 c0 -5 5 -10 10 -10 6 0 10 5 10 10 0 6 -4 10 -10 10 -5 0
-10 -4 -10 -10z"/>
<path d="M5547 3659 c4 -13 8 -18 11 -10 2 7 -1 18 -6 23 -8 8 -9 4 -5 -13z"/>
<path d="M5585 3591 c-3 -5 -1 -12 5 -16 5 -3 10 1 10 9 0 18 -6 21 -15 7z"/>
<path d="M6131 3684 c0 -11 3 -14 6 -6 3 7 2 16 -1 19 -3 4 -6 -2 -5 -13z"/>
<path d="M386 3215 c-11 -8 -15 -15 -9 -15 6 0 16 7 23 15 16 19 11 19 -14 0z"/>
<path d="M270 3171 c0 -5 9 -7 20 -4 11 3 20 7 20 9 0 2 -9 4 -20 4 -11 0 -20
-4 -20 -9z"/>
<path d="M207 3139 c7 -7 15 -10 18 -7 3 3 -2 9 -12 12 -14 6 -15 5 -6 -5z"/>
<path d="M206 3075 c-11 -8 -17 -17 -14 -20 2 -3 13 4 23 15 21 23 18 25 -9 5z"/>
<path d="M165 3050 c-3 -5 -1 -10 4 -10 6 0 11 5 11 10 0 6 -2 10 -4 10 -3 0
-8 -4 -11 -10z"/>
<path d="M6410 2393 c0 -6 8 -17 18 -24 16 -13 16 -13 2 6 -8 11 -16 22 -17
24 -2 2 -3 0 -3 -6z"/>
<path d="M6490 2295 c-7 -8 -8 -15 -2 -15 5 0 15 7 22 15 7 8 8 15 2 15 -5 0
-15 -7 -22 -15z"/>
<path d="M3131 8870 c-13 -11 -29 -20 -37 -20 -8 0 -14 -5 -14 -11 0 -6 9 -8
23 -3 23 7 77 42 77 50 0 10 -27 2 -49 -16z"/>
<path d="M2487 8694 c6 -15 23 -19 23 -5 0 5 -7 11 -14 14 -10 4 -13 1 -9 -9z"/>
<path d="M3470 8600 c0 -5 5 -10 10 -10 6 0 10 5 10 10 0 6 -4 10 -10 10 -5 0
-10 -4 -10 -10z"/>
<path d="M2890 8585 c-7 -9 -8 -15 -2 -15 5 0 12 7 16 15 3 8 4 15 2 15 -2 0
-9 -7 -16 -15z"/>
<path d="M3501 8596 c8 -8 113 -36 118 -30 6 5 -49 25 -89 31 -19 3 -32 3 -29
-1z"/>
<path d="M2829 8513 c-13 -16 -12 -17 4 -4 9 7 17 15 17 17 0 8 -8 3 -21 -13z"/>
<path d="M2855 8389 c-4 -6 -5 -12 -2 -15 2 -3 7 2 10 11 7 17 1 20 -8 4z"/>
<path d="M2617 8113 c-3 -4 1 -17 9 -28 10 -13 14 -15 14 -4 0 20 -16 43 -23
32z"/>
<path d="M2765 7595 c-16 -8 -58 -26 -92 -41 -35 -15 -63 -31 -63 -35 0 -5 53
-7 118 -5 114 5 119 4 212 -30 52 -20 104 -39 115 -44 11 -5 52 -19 90 -31 39
-12 86 -27 105 -35 36 -13 86 -25 130 -30 14 -2 51 -12 83 -24 32 -11 77 -23
100 -25 l42 -4 2 56 c1 52 -9 62 -20 18 -4 -16 -5 -15 -6 6 -2 46 -22 91 -35
80 -8 -7 -16 -4 -26 9 -9 12 -32 21 -64 25 -28 4 -55 11 -61 15 -17 12 -46 20
-40 11 3 -5 -23 -1 -56 9 -34 11 -77 18 -96 16 -18 -1 -41 3 -51 9 -31 21
-105 37 -166 37 -34 0 -65 4 -71 8 -20 17 -119 20 -150 5z"/>
<path d="M4576 7545 c-3 -9 0 -15 9 -15 9 0 12 6 9 15 -4 8 -7 15 -9 15 -2 0
-5 -7 -9 -15z"/>
<path d="M2421 7514 c0 -11 3 -14 6 -6 3 7 2 16 -1 19 -3 4 -6 -2 -5 -13z"/>
<path d="M4555 7470 c-3 -5 -1 -10 4 -10 6 0 11 5 11 10 0 6 -2 10 -4 10 -3 0
-8 -4 -11 -10z"/>
<path d="M2861 7323 c-58 -7 -107 -16 -110 -20 -3 -4 -10 -8 -16 -8 -62 -2
-110 -49 -84 -81 10 -12 9 -13 -5 -8 -26 10 -19 -2 32 -54 26 -27 49 -53 51
-58 9 -17 29 -33 35 -27 3 4 6 -2 6 -13 1 -22 36 -51 71 -57 53 -10 71 -19 57
-29 -8 -6 -2 -7 19 -3 22 4 40 1 59 -11 15 -10 40 -17 55 -16 16 1 29 -1 29
-6 0 -5 22 -14 50 -22 27 -7 47 -17 44 -22 -3 -4 4 -8 14 -8 23 0 35 -33 19
-49 -8 -8 -6 -11 6 -11 10 0 17 8 17 19 0 10 8 21 18 24 9 2 26 8 37 12 16 7
18 6 8 -6 -15 -16 -17 -39 -3 -39 6 0 10 7 10 15 0 8 7 15 16 15 14 0 14 3 4
15 -9 10 -9 15 -1 15 6 0 11 12 11 26 0 23 3 25 38 24 20 -1 52 -2 71 -1 33 1
34 1 16 21 -19 21 -7 28 13 8 14 -14 15 -8 2 26 -8 21 -7 24 6 19 12 -5 15 0
13 23 -2 16 -8 35 -13 42 -7 9 -5 16 4 22 12 7 11 12 -4 29 -11 12 -14 21 -8
21 17 0 15 27 -2 33 -8 3 -17 1 -19 -6 -2 -7 -3 -2 -1 9 4 22 -19 39 -37 29
-5 -4 -6 1 -3 10 8 20 -21 48 -69 66 -20 7 -34 16 -32 20 14 22 -271 30 -424
12z m197 -101 c4 -14 0 -15 -22 -6 -9 3 -16 10 -16 14 0 12 33 5 38 -8z m-48
-2 c0 -13 -11 -13 -30 0 -12 8 -11 10 8 10 12 0 22 -4 22 -10z m70 -96 c0 -3
-7 -12 -15 -20 -8 -9 -15 -13 -15 -11 0 3 -3 12 -6 21 -4 12 0 16 15 16 12 0
21 -3 21 -6z m-110 -34 c0 -24 27 -80 38 -80 4 0 18 -9 32 -20 l25 -19 -45 17
c-66 26 -84 38 -100 66 -12 24 -12 28 6 41 27 20 44 18 44 -5z m350 -60 c0 -4
3 -15 6 -23 3 -10 -5 -18 -27 -26 -36 -12 -89 -15 -89 -4 0 4 16 24 37 45 29
30 40 35 55 27 10 -5 18 -14 18 -19z"/>
<path d="M2025 7060 c-3 -5 -1 -10 4 -10 6 0 11 5 11 10 0 6 -2 10 -4 10 -3 0
-8 -4 -11 -10z"/>
<path d="M2055 7030 c-3 -5 -1 -10 4 -10 6 0 11 5 11 10 0 6 -2 10 -4 10 -3 0
-8 -4 -11 -10z"/>
<path d="M2965 6920 c-8 -13 5 -13 25 0 13 8 13 10 -2 10 -9 0 -20 -4 -23 -10z"/>
<path d="M3230 6836 c0 -9 5 -16 10 -16 6 0 10 4 10 9 0 6 -4 13 -10 16 -5 3
-10 -1 -10 -9z"/>
<path d="M1921 6644 c0 -11 3 -14 6 -6 3 7 2 16 -1 19 -3 4 -6 -2 -5 -13z"/>
<path d="M2183 6603 c1 -24 5 -43 9 -43 10 0 9 26 -2 60 -6 20 -7 17 -7 -17z"/>
<path d="M2233 6360 c5 -31 17 -36 17 -7 0 15 -4 27 -10 27 -5 0 -9 -9 -7 -20z"/>
<path d="M3595 6076 c-48 -23 -89 -59 -78 -69 9 -9 71 3 118 23 26 11 62 20
81 20 42 0 44 14 4 35 -40 21 -67 19 -125 -9z"/>
<path d="M3600 5650 c0 -5 4 -10 9 -10 6 0 13 5 16 10 3 6 -1 10 -9 10 -9 0
-16 -4 -16 -10z"/>
<path d="M3520 5490 c0 -5 5 -10 11 -10 5 0 7 5 4 10 -3 6 -8 10 -11 10 -2 0
-4 -4 -4 -10z"/>
<path d="M3350 5445 c0 -8 5 -15 10 -15 6 0 10 -7 10 -15 0 -8 7 -15 15 -15
12 0 11 5 -3 30 -18 32 -32 39 -32 15z"/>
<path d="M2510 5401 c0 -5 5 -13 10 -16 6 -3 10 -2 10 4 0 5 -4 13 -10 16 -5
3 -10 2 -10 -4z"/>
<path d="M3406 5375 c4 -8 8 -15 10 -15 2 0 4 7 4 15 0 8 -4 15 -10 15 -5 0
-7 -7 -4 -15z"/>
<path d="M3557 5360 c-9 -11 -13 -20 -8 -20 4 0 16 9 26 20 10 11 14 20 9 20
-5 0 -17 -9 -27 -20z"/>
<path d="M3435 5340 c3 -5 11 -10 16 -10 6 0 7 5 4 10 -3 6 -11 10 -16 10 -6
0 -7 -4 -4 -10z"/>
<path d="M3030 4565 c-11 -13 -10 -18 6 -30 27 -21 49 -14 49 15 0 30 -35 40
-55 15z"/>
<path d="M3691 4464 c0 -11 3 -14 6 -6 3 7 2 16 -1 19 -3 4 -6 -2 -5 -13z"/>
<path d="M1860 4350 c0 -5 5 -10 11 -10 5 0 7 5 4 10 -3 6 -8 10 -11 10 -2 0
-4 -4 -4 -10z"/>
<path d="M3847 4304 c-9 -10 2 -24 18 -24 9 0 12 6 9 15 -6 16 -17 19 -27 9z"/>
<path d="M3895 4250 c-3 -5 -1 -10 4 -10 6 0 11 5 11 10 0 6 -2 10 -4 10 -3 0
-8 -4 -11 -10z"/>
<path d="M1757 4199 c-4 -14 -22 -52 -42 -84 -19 -33 -35 -63 -35 -69 0 -14
29 27 30 42 0 6 4 12 10 12 14 0 52 85 48 107 -3 14 -5 12 -11 -8z"/>
<path d="M1521 4184 c0 -11 3 -14 6 -6 3 7 2 16 -1 19 -3 4 -6 -2 -5 -13z"/>
<path d="M4456 3854 c-3 -9 -6 -26 -6 -38 0 -60 -33 -118 -119 -208 -72 -76
-86 -96 -86 -123 0 -18 3 -31 8 -28 9 5 9 -102 0 -175 -5 -43 -11 -56 -29 -65
-28 -12 -30 -23 -9 -44 21 -20 88 -119 109 -160 29 -57 17 -49 -20 12 -19 33
-48 76 -65 95 l-29 35 -24 -29 c-14 -16 -30 -41 -37 -55 -7 -14 -23 -39 -35
-56 -11 -16 -29 -45 -38 -63 -10 -19 -20 -32 -22 -29 -4 4 33 75 46 87 11 11
90 170 90 183 0 9 -8 13 -22 10 -13 -2 -41 -6 -63 -8 -235 -29 -301 -40 -323
-58 -20 -16 -114 -206 -107 -217 4 -6 12 -10 19 -10 17 0 189 -74 234 -100 39
-24 34 -27 80 52 15 27 30 48 35 48 13 0 8 -16 -12 -37 -11 -12 -17 -23 -15
-26 3 -3 -2 -17 -12 -32 -12 -18 -14 -29 -7 -33 84 -52 133 -90 133 -102 0 -9
-3 -11 -8 -5 -9 12 -128 75 -142 75 -11 0 -100 -181 -125 -253 -18 -55 -29
-148 -21 -181 3 -14 15 -34 26 -44 14 -13 20 -33 21 -70 1 -28 6 -49 11 -46
18 11 6 -34 -32 -121 -28 -64 -38 -170 -17 -179 10 -5 10 -7 0 -12 -9 -4 -13
-29 -13 -74 0 -67 0 -68 33 -80 17 -8 64 -28 104 -47 39 -18 76 -33 83 -33 17
0 35 21 48 55 11 29 11 28 5 -10 -3 -22 -6 -44 -7 -50 0 -5 17 -12 39 -15 22
-4 63 -16 90 -27 102 -42 161 -63 173 -63 6 0 12 -4 12 -8 0 -10 90 -43 100
-37 13 8 57 90 70 130 19 57 29 50 14 -10 -8 -30 -26 -71 -39 -91 -14 -20 -25
-40 -25 -43 0 -4 24 -20 53 -38 52 -31 207 -149 207 -158 0 -2 -29 15 -65 38
-36 23 -98 60 -138 83 l-72 41 -52 -86 c-28 -47 -63 -104 -76 -126 -13 -22
-34 -57 -46 -77 l-22 -37 227 -111 c179 -88 229 -109 236 -98 5 7 25 46 45 86
19 39 39 72 44 72 9 0 -10 -48 -47 -122 -13 -26 -24 -49 -24 -51 0 -2 29 -24
65 -48 36 -24 65 -47 65 -51 0 -5 6 -8 13 -8 15 0 76 -49 62 -50 -12 0 -87 39
-95 49 -6 8 -117 71 -124 71 -3 0 -11 -18 -17 -40 -7 -22 -17 -40 -22 -40 -6
0 -8 -2 -5 -5 3 -3 -26 -65 -63 -137 -38 -72 -68 -132 -67 -133 2 -1 32 -19
68 -39 36 -20 72 -41 80 -46 8 -5 38 -22 65 -36 28 -15 77 -46 109 -71 l59
-44 17 26 c9 14 27 48 40 75 13 28 27 50 32 50 13 0 1 -36 -36 -104 -24 -45
-28 -60 -17 -64 7 -2 22 -13 32 -23 11 -11 22 -19 25 -18 3 1 26 -17 50 -40
24 -22 44 -38 44 -35 0 3 7 -1 15 -10 30 -29 14 -27 -32 6 -27 18 -50 35 -53
38 -3 3 -26 19 -52 37 l-48 32 -23 -42 c-14 -23 -38 -68 -55 -99 l-30 -58 283
0 c260 0 285 2 295 17 11 17 11 17 6 1 -5 -16 3 -18 65 -18 62 0 70 2 66 18
-3 9 -15 51 -27 92 l-23 75 -18 -40 c-9 -22 -18 -46 -18 -52 -1 -7 -5 -13 -11
-13 -5 0 -10 -9 -10 -20 0 -11 -4 -20 -10 -20 -14 0 -14 1 24 77 39 78 40 116
7 180 -12 24 -19 43 -15 43 4 0 2 6 -4 13 -6 6 -34 77 -62 157 -51 141 -135
340 -149 350 -3 3 -12 18 -19 33 -7 15 -16 25 -22 22 -9 -6 -90 40 -90 51 0 3
20 -6 45 -19 25 -14 45 -23 45 -20 0 12 -24 88 -30 93 -10 9 -55 114 -52 123
1 5 -1 6 -6 3 -5 -3 -18 11 -28 32 -10 20 -43 74 -71 119 -29 45 -53 87 -53
92 0 16 -33 81 -41 81 -3 0 -9 14 -12 30 -4 18 -13 30 -22 30 -9 0 -15 6 -14
13 3 26 -14 57 -32 57 -10 0 -21 5 -25 12 -5 8 0 9 17 5 20 -5 21 -4 9 6 -8 7
-21 24 -29 39 -8 15 -18 26 -24 25 -5 -1 -14 13 -19 31 -5 18 -13 30 -18 27
-6 -4 -10 0 -10 7 0 8 -9 20 -21 28 -24 17 -109 124 -109 137 0 4 7 -1 15 -11
8 -11 15 -15 15 -9 0 6 -7 16 -16 24 -8 7 -13 21 -10 31 3 16 2 17 -10 7 -7
-6 -11 -16 -7 -22 4 -6 1 -7 -6 -3 -7 5 -10 15 -7 23 4 9 2 21 -4 28 -6 7 -10
17 -8 21 5 18 -26 53 -37 44 -8 -7 -11 -1 -10 20 1 23 -2 30 -16 30 -13 0 -17
-5 -12 -17 6 -15 5 -16 -9 -3 -14 13 -14 16 0 26 13 9 12 13 -3 32 -10 11 -22
19 -27 16 -4 -3 -5 3 -1 12 4 12 3 15 -5 10 -7 -4 -12 -1 -12 7 0 8 -9 22 -20
32 -12 11 -20 13 -20 6 0 -6 7 -14 15 -17 8 -4 15 -16 15 -27 0 -31 -20 -8
-40 45 -11 30 -15 70 -13 133 5 158 9 188 31 270 13 44 25 89 27 100 3 11 8
36 13 55 9 42 0 129 -16 138 -7 5 -8 19 -2 42 4 19 8 31 9 25 1 -12 25 32 54
100 11 28 33 68 48 90 14 22 29 49 32 60 4 16 5 17 6 3 2 -27 45 -17 49 11 2
12 9 20 15 18 12 -4 47 27 47 42 0 5 10 7 22 3 14 -3 19 -2 14 6 -4 7 0 15 11
19 39 15 62 66 40 92 -10 12 -9 12 10 0 12 -7 24 -20 27 -29 3 -12 4 -12 5 2
0 9 -6 23 -14 32 -8 8 -15 18 -15 21 0 4 -22 35 -48 69 -45 56 -108 146 -189
266 -43 65 -141 105 -157 64z m208 -408 c-8 -28 -34 -69 -40 -63 -3 3 1 21 10
40 8 19 12 37 10 40 -2 2 3 4 11 4 11 0 13 -7 9 -21z m-344 -81 c0 -28 -17
-34 -27 -9 -3 9 0 20 8 25 19 12 19 12 19 -16z m101 -28 c-11 -12 -23 -19 -25
-16 -9 9 25 50 36 43 6 -4 2 -14 -11 -27z m139 23 c0 -5 -5 -10 -11 -10 -5 0
-7 5 -4 10 3 6 8 10 11 10 2 0 4 -4 4 -10z m-240 -40 c0 -5 -5 -10 -11 -10 -5
0 -7 5 -4 10 3 6 8 10 11 10 2 0 4 -4 4 -10z m167 -302 c-3 -8 -6 -5 -6 6 -1
11 2 17 5 13 3 -3 4 -12 1 -19z m-452 -679 c12 -19 -5 -23 -22 -6 -16 16 -16
17 -1 17 9 0 20 -5 23 -11z m-88 -26 c-3 -10 -8 -35 -12 -55 -3 -21 -10 -38
-15 -38 -5 0 -7 14 -3 30 3 19 1 30 -6 30 -6 0 -11 -6 -12 -12 0 -10 -2 -10
-6 -1 -4 12 35 61 50 62 5 1 6 -7 4 -16z m103 -43 c0 -13 -1 -13 -10 0 -5 8
-10 22 -10 30 0 13 1 13 10 0 5 -8 10 -22 10 -30z m10 -24 c0 -2 -7 -6 -15
-10 -8 -3 -15 -1 -15 4 0 6 7 10 15 10 8 0 15 -2 15 -4z m-143 -58 c-3 -8 -6
-5 -6 6 -1 11 2 17 5 13 3 -3 4 -12 1 -19z m259 -123 c59 -58 88 -82 89 -75 1
3 25 -13 53 -34 28 -22 50 -42 47 -44 -2 -3 -19 6 -37 20 -18 14 -61 40 -96
58 -55 29 -87 58 -144 128 -49 61 -51 101 -1 41 20 -24 60 -66 89 -94z m321
63 c-3 -8 -6 -5 -6 6 -1 11 2 17 5 13 3 -3 4 -12 1 -19z m-553 -24 c3 -8 2
-12 -4 -9 -6 3 -10 10 -10 16 0 14 7 11 14 -7z m73 -73 c12 -6 34 -11 50 -11
15 0 42 -8 58 -18 17 -10 53 -26 80 -36 28 -11 55 -23 61 -28 7 -4 56 -31 110
-60 85 -43 93 -50 59 -45 -22 4 -95 33 -161 67 -67 33 -128 60 -137 60 -28 0
-152 61 -169 83 -25 32 -22 44 5 20 12 -11 32 -26 44 -32z m588 -11 c-3 -5
-12 -10 -18 -10 -7 0 -6 4 3 10 19 12 23 12 15 0z m-395 -112 c0 -16 -80 -181
-86 -176 -6 6 24 95 48 146 20 40 38 55 38 30z m675 -847 c3 -5 2 -12 -3 -15
-5 -3 -9 1 -9 9 0 17 3 19 12 6z m354 -365 c-12 -31 -26 -56 -30 -56 -5 0 -1
15 7 33 8 17 20 44 27 59 6 15 13 25 15 23 2 -2 -6 -29 -19 -59z m-184 -36 c3
-6 -1 -7 -9 -4 -18 7 -21 14 -7 14 6 0 13 -4 16 -10z m75 -53 c0 -5 -13 1 -30
13 -39 27 -39 34 0 12 16 -9 30 -21 30 -25z m53 -14 c3 6 6 3 6 -8 1 -12 7
-27 14 -34 10 -10 8 -11 -7 -5 -11 4 -22 2 -28 -7 -8 -11 -8 -9 -4 5 4 11 -1
27 -11 39 -18 19 -17 20 4 9 16 -9 23 -9 26 1z m82 -85 c5 4 5 1 1 -6 -6 -10
-11 -10 -22 -1 -8 6 -14 14 -14 16 0 3 6 0 13 -6 8 -6 18 -7 22 -3z m176 -140
c11 -21 11 -22 -4 -9 -10 7 -17 17 -17 22 0 15 9 10 21 -13z m49 -43 c11 -13
10 -14 -4 -9 -9 3 -16 10 -16 15 0 13 6 11 20 -6z m-246 -278 c7 -6 6 -7 -4
-4 -8 2 -16 12 -17 23 -2 13 -1 15 4 4 3 -8 11 -19 17 -23z"/>
<path d="M5051 3854 c0 -11 3 -14 6 -6 3 7 2 16 -1 19 -3 4 -6 -2 -5 -13z"/>
<path d="M6745 3830 c-3 -5 -1 -10 4 -10 6 0 11 5 11 10 0 6 -2 10 -4 10 -3 0
-8 -4 -11 -10z"/>
<path d="M4821 3814 c0 -11 3 -14 6 -6 3 7 2 16 -1 19 -3 4 -6 -2 -5 -13z"/>
<path d="M4150 3810 c-8 -5 -12 -12 -9 -15 4 -3 12 1 19 10 14 17 11 19 -10 5z"/>
<path d="M4115 3781 c3 -5 -4 -12 -15 -16 -11 -3 -20 -11 -20 -16 0 -5 11 -2
25 7 26 17 33 34 14 34 -5 0 -8 -4 -4 -9z"/>
<path d="M4841 3785 c0 -5 6 -21 14 -35 8 -14 14 -20 14 -15 0 6 -6 21 -14 35
-8 14 -14 21 -14 15z"/>
<path d="M6718 3783 c6 -2 18 -2 25 0 6 3 1 5 -13 5 -14 0 -19 -2 -12 -5z"/>
<path d="M1460 3750 c-7 -16 -12 -41 -12 -55 0 -14 -4 -25 -9 -25 -5 0 -9 -10
-9 -22 1 -22 2 -21 16 5 8 15 12 32 9 37 -3 6 -2 10 3 10 9 0 25 70 18 77 -2
2 -9 -10 -16 -27z"/>
<path d="M6661 3744 c0 -11 3 -14 6 -6 3 7 2 16 -1 19 -3 4 -6 -2 -5 -13z"/>
<path d="M4880 3711 c0 -6 4 -13 10 -16 6 -3 7 1 4 9 -7 18 -14 21 -14 7z"/>
<path d="M6646 3655 c-3 -8 -1 -15 4 -15 6 0 10 7 10 15 0 8 -2 15 -4 15 -2 0
-6 -7 -10 -15z"/>
<path d="M3330 3626 c0 -2 7 -7 16 -10 8 -3 12 -2 9 4 -6 10 -25 14 -25 6z"/>
<path d="M3384 3581 c1 -17 26 -28 26 -11 0 6 -4 9 -9 5 -5 -3 -11 0 -14 7 -2
9 -4 8 -3 -1z"/>
<path d="M3416 3564 c-9 -24 -7 -36 5 -29 6 4 13 -2 16 -14 3 -12 8 -21 12
-21 11 0 103 -79 184 -157 69 -68 77 -73 77 -51 0 14 11 46 25 72 14 26 25 49
25 52 0 2 -15 4 -34 4 -24 0 -38 7 -52 25 -10 14 -24 25 -31 25 -7 0 -13 5
-13 10 0 6 -15 10 -33 10 -19 0 -42 8 -55 20 -11 11 -28 17 -36 14 -9 -3 -16
-1 -16 5 0 6 5 11 10 11 6 0 10 4 10 10 0 5 -7 7 -15 4 -8 -4 -15 -1 -15 6 0
7 -7 10 -16 6 -9 -4 -22 -2 -29 4 -9 8 -14 6 -19 -6z"/>
<path d="M3040 3484 c-45 -41 -159 -183 -182 -228 -18 -34 -7 -86 18 -86 8 0
14 -7 14 -15 0 -8 10 -20 22 -26 12 -6 31 -20 42 -30 11 -11 28 -19 38 -19 10
0 18 -4 18 -8 0 -5 12 -9 28 -10 15 0 51 -13 81 -27 29 -14 56 -24 59 -21 3 4
13 -1 23 -10 10 -9 27 -14 38 -11 23 6 39 -22 20 -34 -8 -5 14 -33 64 -83 43
-41 77 -83 77 -92 0 -19 29 -60 103 -147 53 -62 67 -62 67 -1 0 17 9 60 20 95
12 35 27 90 34 121 l13 58 -54 17 c-29 9 -61 25 -70 35 -15 16 -14 18 2 24 11
5 22 1 30 -9 10 -14 73 -47 89 -47 3 0 21 33 42 73 20 39 45 84 56 100 l19 27
-23 0 c-13 0 -75 -6 -138 -14 -129 -16 -175 -11 -265 28 -31 14 -66 26 -76 26
-11 0 -19 4 -19 9 0 5 9 7 20 4 23 -6 26 2 8 22 -61 65 -92 108 -94 130 -2 17
1 25 9 22 7 -2 19 -1 29 2 13 5 6 19 -40 80 -32 41 -62 76 -69 78 -6 3 -30
-12 -53 -33z m166 -302 c-10 -2 -22 0 -28 6 -6 6 0 7 19 4 21 -5 23 -7 9 -10z
m77 -147 c12 -3 34 -7 49 -9 34 -6 48 -14 48 -28 0 -17 -107 -4 -128 15 -16
15 -17 23 -8 84 l11 68 3 -62 c3 -55 6 -63 25 -68z"/>
<path d="M5220 3492 c0 -12 32 -62 58 -90 16 -17 16 1 1 31 -17 32 -59 74 -59
59z"/>
<path d="M5180 3370 c-7 -22 -10 -43 -7 -47 4 -3 7 2 7 13 0 16 2 16 10 4 12
-19 25 -6 15 17 -5 10 -7 26 -6 36 4 29 -5 19 -19 -23z"/>
<path d="M4895 3382 c4 -8 11 -26 15 -40 7 -22 8 -23 9 -6 1 11 -6 29 -15 40
-8 10 -12 13 -9 6z"/>
<path d="M4980 3349 c0 -17 4 -28 10 -24 6 3 10 17 10 31 0 13 -4 24 -10 24
-5 0 -10 -14 -10 -31z"/>
<path d="M5250 3342 c0 -12 3 -12 16 -2 13 11 16 10 21 -8 3 -12 9 -22 14 -22
5 0 4 11 -2 24 -12 26 -49 32 -49 8z"/>
<path d="M4958 3288 c0 -12 -2 -35 -3 -50 -1 -15 2 -25 6 -22 5 3 9 11 9 19 0
8 4 16 9 20 6 3 8 -10 6 -32 l-5 -38 12 33 c7 22 8 43 2 59 -12 35 -34 41 -36
11z"/>
<path d="M5300 3296 c0 -15 24 -66 31 -66 12 0 11 11 -3 43 -11 22 -28 37 -28
23z"/>
<path d="M4914 3171 c1 -16 4 -27 9 -24 10 6 9 41 -2 47 -4 3 -8 -8 -7 -23z"/>
<path d="M5301 3164 c0 -11 3 -14 6 -6 3 7 2 16 -1 19 -3 4 -6 -2 -5 -13z"/>
<path d="M5210 3113 c0 -4 5 -15 10 -23 8 -13 10 -13 10 2 0 9 -4 20 -10 23
-5 3 -10 3 -10 -2z"/>
<path d="M3650 2871 c-19 -41 -30 -78 -50 -181 -20 -101 -17 -114 27 -158 7
-8 10 -18 7 -24 -4 -7 -2 -8 4 -4 7 4 12 2 12 -4 0 -6 5 -8 10 -5 6 4 9 2 8
-4 -5 -19 36 -72 54 -68 9 3 32 -11 54 -34 34 -35 37 -44 11 -40 -5 1 -6 -3
-2 -9 12 -19 35 10 35 44 0 70 68 272 127 376 3 5 -59 35 -162 80 -27 12 -66
30 -86 40 l-37 18 -12 -27z"/>
<path d="M7088 2883 c7 -3 16 -2 19 1 4 3 -2 6 -13 5 -11 0 -14 -3 -6 -6z"/>
<path d="M7276 2502 c-3 -6 1 -13 10 -16 23 -9 28 -2 10 13 -8 7 -17 8 -20 3z"/>
<path d="M3730 2414 c0 -14 21 -42 35 -48 11 -4 9 3 -7 24 -22 30 -28 35 -28
24z"/>
<path d="M7380 2375 c0 -5 5 -17 10 -25 5 -8 10 -10 10 -5 0 6 -5 17 -10 25
-5 8 -10 11 -10 5z"/>
<path d="M0 1185 l0 -1185 733 0 734 0 -8 47 c-4 27 -8 78 -8 116 -1 37 -4 67
-9 67 -4 0 -13 -14 -20 -30 -17 -37 -26 -37 -63 -1 -37 37 -38 77 -4 150 14
30 24 56 22 58 -10 9 -37 -11 -37 -28 0 -10 -10 -25 -21 -33 -19 -13 -21 -20
-14 -72 4 -31 9 -63 12 -71 3 -8 -2 -13 -13 -13 -14 0 -16 -2 -6 -9 11 -7 11
-9 -2 -14 -17 -7 -31 8 -21 22 3 6 -33 9 -90 9 -87 0 -98 2 -129 25 -19 15
-55 57 -82 94 -26 37 -79 109 -119 158 -39 50 -86 113 -105 140 -37 54 -137
268 -197 418 -19 51 -48 117 -63 147 -38 76 -84 223 -111 355 -21 104 -30 126
-179 420 -87 171 -165 334 -175 363 -9 28 -18 52 -21 52 -2 0 -4 -533 -4
-1185z"/>
<path d="M4445 2260 c3 -5 8 -10 11 -10 2 0 4 5 4 10 0 6 -5 10 -11 10 -5 0
-7 -4 -4 -10z"/>
<path d="M7462 2055 c0 -11 3 -29 8 -40 11 -25 11 1 0 35 -6 20 -8 21 -8 5z"/>
<path d="M7490 2032 c0 -17 4 -34 10 -37 6 -4 7 6 3 27 -8 44 -13 48 -13 10z"/>
<path d="M4736 1847 c3 -10 9 -15 12 -12 3 3 0 11 -7 18 -10 9 -11 8 -5 -6z"/>
<path d="M7545 1840 c3 -5 8 -10 11 -10 2 0 4 5 4 10 0 6 -5 10 -11 10 -5 0
-7 -4 -4 -10z"/>
<path d="M3840 1648 c0 -26 47 -257 58 -288 7 -20 16 -11 79 87 40 60 73 114
75 121 2 7 -42 30 -104 56 -101 41 -108 43 -108 24z"/>
<path d="M4047 1518 c-61 -87 -130 -216 -124 -232 3 -7 17 -16 32 -20 26 -7
98 -49 123 -74 8 -7 17 -10 22 -7 5 3 16 -5 25 -17 8 -13 18 -22 20 -20 12 6
26 1 20 -8 -7 -11 -55 9 -55 23 0 6 -3 8 -6 5 -3 -4 -34 7 -69 23 -86 39 -98
38 -90 -3 24 -117 120 -442 131 -445 13 -4 60 58 124 167 24 41 48 78 53 81 5
3 8 8 7 10 -1 2 4 16 11 32 7 15 10 29 8 30 -2 2 -25 16 -52 31 -26 15 -45 31
-42 36 6 10 45 -9 45 -22 0 -4 6 -5 14 -2 8 3 17 1 21 -5 12 -20 35 -11 48 17
6 15 14 29 17 32 11 11 73 116 74 127 1 7 21 42 44 78 37 58 39 66 24 74 -9 5
-21 10 -27 11 -5 1 -20 6 -33 11 -13 5 -25 9 -28 9 -3 0 -35 14 -72 31 -99 46
-204 89 -216 89 -2 0 -24 -28 -49 -62z"/>
<path d="M4290 1032 c-8 -10 -16 -25 -18 -33 -2 -8 -9 -21 -16 -29 -7 -8 -38
-64 -69 -124 l-57 -109 22 -16 c12 -9 76 -48 142 -87 67 -40 129 -79 139 -88
9 -9 17 -14 17 -11 0 3 27 -8 60 -25 34 -17 65 -28 70 -25 5 3 21 31 37 63 15
31 31 59 34 62 11 9 109 205 109 218 0 7 -6 12 -12 12 -19 0 -372 171 -380
184 -4 6 -8 7 -8 3 0 -5 -10 -1 -22 7 -28 20 -30 20 -48 -2z"/>
<path d="M4111 697 c-17 -17 -13 -96 9 -183 10 -44 26 -124 34 -179 13 -88 18
-103 43 -123 40 -32 169 -112 181 -112 14 0 182 313 182 339 0 4 -22 22 -50
39 -27 17 -50 36 -50 42 0 6 -5 8 -10 5 -10 -6 -198 96 -287 155 -30 20 -44
25 -52 17z"/>
<path d="M4577 398 c-9 -18 -22 -40 -27 -48 -27 -38 -138 -264 -134 -272 3 -4
32 -23 65 -43 l60 -35 164 0 164 0 19 28 c10 15 29 47 41 72 13 25 31 59 42
76 l19 31 -83 50 c-45 28 -120 70 -167 93 -47 23 -97 51 -112 61 -14 11 -28
19 -30 19 -2 0 -12 -15 -21 -32z"/>
<path d="M4190 163 c0 -4 8 -43 17 -85 l16 -78 58 0 c48 0 60 4 73 22 29 41
20 54 -74 102 -49 26 -90 43 -90 39z"/>
<path d="M4383 33 c-3 -10 -8 -21 -10 -25 -2 -5 19 -8 48 -8 l53 0 -34 25
c-40 30 -49 31 -57 8z"/>
</g>
</svg>
